<svg xmlns="http://www.w3.org/2000/svg" xmlns:xlink="http://www.w3.org/1999/xlink" viewBox="0 0 500 500"><defs><clipPath id="freepik--clip-path--inject-127"><path d="M355,289.72s5.66-15.44,9.26-19.55,4.63-5.15,8.49-5.15,7.21,5.15,8.24,4.63,1.29-2.57-.77-4.63-5.92-3.86-11.07-5.41-11.58-3.34-16.47-1-9.78,8.24-9.52,12.61,8.75,19.05,8.75,19.05Z" style="fill:#fff"></path></clipPath><clipPath id="freepik--clip-path-2--inject-127"><path d="M331.07,248.29,330.3,255l1,4.12s-3.35,5.15-2.32,5.66,3.86,1.8,3.86,1.8,5.15,7.72,6.44,8.24,6.95-4.63,6.95-4.63,6.17,25.73,8,22.9,3.35-21.88,4.38-27.79.51-7.72.51-7.72,2.32-13.64-1.54-19.05-11.58-3.86-13.38-3.34a26.47,26.47,0,0,0-3.86,1.54s-1.8-3.35-4.63-1.8A8.57,8.57,0,0,0,332.1,238s-6.17.51-5.4,5.14S331.07,248.29,331.07,248.29Z" style="fill:#fff"></path></clipPath><clipPath id="freepik--clip-path-3--inject-127"><path d="M354.39,386.41s-5.13,4.62-10.51,6.41c-3.92,1.31-5.12,3.33-2.05,5.13s20.24,1.53,24.34.51c0,0,3.85.77,3.85-1.8s-3.08-8.45-3.08-8.45S359.25,383.6,354.39,386.41Z" style="fill:#fff"></path></clipPath><clipPath id="freepik--clip-path-4--inject-127"><path d="M362.33,281.36s-3.59,3.58-2.56,7.68,4.87,10.25,4.87,10.25-1.54,3.08.25,5.64a15,15,0,0,1,2.31,5.13s-2.05,1-.51,3.58l1.53,2.57s-16.14,3.33-19.22,4.1-5.89,1.79-5.63,3.58,2.56,2.82,5.38,2.82,20.75,2.56,26.13,2.56,12.3-.77,13.33-6.15,1-7.43.77-8.2-.51-1.53-.26-5.63-2.3-7.69-2.56-9,2-3.08,1.28-6.41a23.9,23.9,0,0,0-2.05-5.64s1.54-4.35-.51-7.17S381.8,278,381.8,278" style="fill:#fff"></path></clipPath><clipPath id="freepik--clip-path-5--inject-127"><path d="M262.78,265.21s-3.43,3.43-3.21,6,.46,4.35-.22,5.5-2.52,1.83-2.29,2.51a11.73,11.73,0,0,0,1.6,2.29s-.23,5.27,1.37,6.87,5,1.37,5,1.37,2.06,10.53,4.12,9.85,6.87-9.85,7.55-10.76.69-4.81.69-4.81a14.19,14.19,0,0,0,8-8.24c2.75-8-5.26-14.42-8.24-15.11a28.52,28.52,0,0,0-5.72-.69s-1.15-1.6-6-.68S258.66,262.46,262.78,265.21Z" style="fill:#fff"></path></clipPath><clipPath id="freepik--clip-path-6--inject-127"><path d="M393.82,392.17s-13.92-2.23-21-2.23-21.06-.92-32.28-1.15-95-2.81-100.46-6.25-6.64-17.85-3.66-26.32,12.13-8.93,12.13-8.93l147.16,1Z" style="fill:#92E3A9"></path></clipPath><clipPath id="freepik--clip-path-7--inject-127"><path d="M283.15,304.12l9.85,19a9.49,9.49,0,0,0,8.24,3.21c5.49-.46,4.54-5.54,2.74-8.93-5.72-10.76-9.38-22-13.73-25.18s-8,.23-9.16,1.37" style="fill:#fff"></path></clipPath><clipPath id="freepik--clip-path-8--inject-127"><path d="M284.3,328.62s-8.24,3.43-13.05,3.66-8.47-.91-14.19-3.2-12.59-4.35-17.63-.92,5.49,43.49,5.95,46-3.43,4.58-7.78,6.18-7.33,3-4.81,4.58,12.36.46,15.34.46,4.58-1.83,4.58-4.35-1.61-8-1.61-10.07.46-26.33.46-26.33,9.85,5.27,19,5.72,15.34.23,18.77-5.49S291.39,328.85,284.3,328.62Z" style="fill:#fff"></path></clipPath><clipPath id="freepik--clip-path-9--inject-127"><path d="M293.45,335.71s-.91-7.09-5.49-7.55-7.55,2.75-9.16,9.16-2.29,28.38-4.12,33.42-4.12,10.07-6.18,11.21-7.55,4.13-7.55,6,7.78,1.83,12.36,2.06,5.95-.46,6.41-3-.46-6.87.69-9.61,9.61-23.12,11.9-29.76A24.11,24.11,0,0,0,293.45,335.71Z" style="fill:#fff"></path></clipPath><clipPath id="freepik--clip-path-10--inject-127"><path d="M147.82,400.67s-13.92-2.23-21-2.23-21.06-.92-32.28-1.15-15.11-.46-20.6-3.89-6.64-17.85-3.67-26.32,12.14-8.93,12.14-8.93l67.3-1.38Z" style="fill:#92E3A9"></path></clipPath><clipPath id="freepik--clip-path-11--inject-127"><ellipse cx="149.35" cy="378.86" rx="21.86" ry="14.99" transform="translate(-239.05 501.28) rotate(-85.98)" style="fill:#fff"></ellipse></clipPath><clipPath id="freepik--clip-path-12--inject-127"><path d="M134.59,260.86s-1.37,3.89-1.6,5,.91,2.74.91,5.49-2.06,5-2.52,5.95-1.14,3.44-3.89,3.66a24.23,24.23,0,0,1-6.41-.68l-1.83,6.41-9.61-6.41,1.83-8.93a26,26,0,0,1,6-10.53c4.35-4.35,9.84-4.35,12.36-4.35S134.59,260.86,134.59,260.86Z" style="fill:#fff"></path></clipPath><clipPath id="freepik--clip-path-13--inject-127"><ellipse cx="395.35" cy="370.36" rx="21.86" ry="14.99" transform="translate(-1.83 738.77) rotate(-85.98)" style="fill:#fff"></ellipse></clipPath><clipPath id="freepik--clip-path-14--inject-127"><path d="M311.34,384.62a23.81,23.81,0,0,1-6.66,4.36c-4.1,1.79-8.72,3.58-6.92,5.63s13.58,1.54,15.88,1.29,7.95,1.28,11-.52,2-5.63,1-7.68-13.33-3.08-13.33-3.08Z" style="fill:#fff"></path></clipPath><clipPath id="freepik--clip-path-15--inject-127"><path d="M343.17,271.19s-8.49,5.67-8.49,8.75v5.92c0,.78-4.89,3.35-4.12,5.67l.77,2.31s-4.37,2.83-4.89,4.89-1.29,5.15-1.29,5.15-11.06,7.2-12.86,13.38,4.89,9.78,7.46,9.78,8.23-9,9.52-10,2.83.77,5.15-1.28a7.53,7.53,0,0,0,2.31-5.15,7.09,7.09,0,0,1,2.84-1.8,7.28,7.28,0,0,0,3.34-3.35l3.35-.26s5.92,18,6.43,19.31,3.6,2.83,7.21,2.83,29.59,4.37,30.88,2.83,6.17-3.61,5.92-6.69-2.58-3.61-3.61-9.78-4.11-23.42-5.66-30.88A32.55,32.55,0,0,0,381,269.65a12.6,12.6,0,0,0-9-6.95,28.65,28.65,0,0,0-18.27,3.09C348.83,268.36,343.17,271.19,343.17,271.19Z" style="fill:#fff"></path></clipPath><clipPath id="freepik--clip-path-16--inject-127"><path d="M425.77,130.11s-34.06-48-95.65-47.9S231,125,188.85,149.84c-22.07,13-49.25,12.53-73.42,20.55C38.14,196.05,20.72,296.86,60.82,347.77c34.71,44.08,88.21,62.45,165.57,58.34s132-4.31,194.56-59.91S466.49,193.8,425.77,130.11Z" style="fill:none"></path></clipPath><clipPath id="freepik--clip-path-17--inject-127"><path d="M393.82,392.67h-.08c-.14,0-14-2.23-20.93-2.23-3.7,0-9.33-.25-15.28-.52-5.72-.25-11.62-.52-17-.63-.94,0-94.63-2.52-100.71-6.32-5.63-3.52-6.95-18.15-3.87-26.92s12.48-9.25,12.58-9.26l147.18,1a.57.57,0,0,1,.36.16.55.55,0,0,1,.14.37l-1.88,43.89a.51.51,0,0,1-.18.37A.54.54,0,0,1,393.82,392.67ZM248.54,347.79c-.06,0-8.83.55-11.66,8.6-2.9,8.26-1.72,22.49,3.46,25.73,5.38,3.36,89.11,5.95,100.2,6.17,5.4.11,11.31.38,17,.63,5.95.27,11.56.52,15.24.52,6.24,0,17.87,1.74,20.53,2.15l1.83-42.82Z" style="fill:#263238;clip-path:url(#freepik--clip-path-6--inject-127)"></path></clipPath><clipPath id="freepik--clip-path-18--inject-127"><path d="M394.56,392.7l-.78,0c-8.52-.6-14.75-11.09-13.88-23.39a28,28,0,0,1,5.57-15.39c3.22-4.05,7.28-6.12,11.45-5.83s7.9,2.91,10.53,7.37a29.93,29.93,0,0,1-2.21,31.41C402.22,390.64,398.45,392.7,394.56,392.7ZM396.15,349c-3.58,0-7.07,1.93-9.9,5.48a27,27,0,0,0-5.35,14.84c-.83,11.75,5,21.76,13,22.32,3.84.28,7.59-1.67,10.6-5.45a26.94,26.94,0,0,0,5.36-14.84h0a27,27,0,0,0-3.23-15.44c-2.45-4.17-5.9-6.61-9.73-6.88C396.62,349,396.38,349,396.15,349Z" style="fill:#263238;clip-path:url(#freepik--clip-path-13--inject-127)"></path></clipPath><clipPath id="freepik--clip-path-19--inject-127"><path d="M320.36,396.77c-1.25,0-2.53-.13-3.68-.24a18.83,18.83,0,0,0-3-.14c-.14,0-14.08,1.11-16.32-1.45a1.78,1.78,0,0,1-.48-1.61c.38-1.69,3.47-3,6.73-4.45l.84-.36a23.44,23.44,0,0,0,6.51-4.25.51.51,0,0,1,.36-.15h1c2.14.18,12.68,1.16,13.77,3.35,1.37,2.73,1.87,6.55-1.22,8.34A9.07,9.07,0,0,1,320.36,396.77Zm-6.1-1.4c.71,0,1.56.08,2.51.17,2.54.24,5.7.54,7.64-.59,3.2-1.87,1.25-6.18.83-7-.56-1.13-7-2.31-12.92-2.8h-.78a24.68,24.68,0,0,1-6.66,4.32l-.85.36c-2.76,1.2-5.89,2.56-6.15,3.75a.78.78,0,0,0,.25.74c1.46,1.66,12.17,1.47,15.46,1.11C313.79,395.38,314,395.37,314.26,395.37Z" style="fill:#263238;clip-path:url(#freepik--clip-path-14--inject-127)"></path></clipPath><clipPath id="freepik--clip-path-20--inject-127"><path d="M388.54,331c-3.13,0-9.12-.71-18.88-2-4.59-.61-8.55-1.14-9.76-1.14-3.84,0-7.07-1.63-7.67-3.15-.48-1.2-5.45-16.3-6.33-19l-2.67.21a7.65,7.65,0,0,1-3.46,3.32,8.42,8.42,0,0,0-2.54,1.54,7.93,7.93,0,0,1-2.48,5.33A4.24,4.24,0,0,1,331,317.2c-.68-.07-1.05-.09-1.41.19a25,25,0,0,0-2.12,2.64c-3.11,4.11-5.83,7.51-7.71,7.51s-5-1.48-6.76-3.88a7.17,7.17,0,0,1-1.18-6.54c1.73-5.94,11.46-12.59,12.91-13.55l1.24-5c.47-1.92,3.68-4.23,4.77-5l-.65-2c-.62-1.85,1.48-3.6,3-4.88a6.81,6.81,0,0,0,1.1-1v-5.83c0-3.26,7.82-8.57,8.71-9.16l.05,0c.06,0,5.72-2.86,10.55-5.4a29,29,0,0,1,18.6-3.14,13,13,0,0,1,9.34,7.17,32.85,32.85,0,0,1,6.49,13.29c1.53,7.39,4.63,24.71,5.67,30.91a16.37,16.37,0,0,0,2.3,6.35,7.4,7.4,0,0,1,1.3,3.47c.21,2.43-2.23,4.17-4.19,5.57a10.8,10.8,0,0,0-1.84,1.48C390.88,330.79,390,331,388.54,331Zm-42.28-26.28a.49.49,0,0,1,.47.34c.06.18,5.92,18,6.42,19.27.42,1,3.25,2.52,6.75,2.52,1.28,0,5.08.5,9.89,1.15,7.29,1,19.49,2.59,20.63,1.83a11.46,11.46,0,0,1,2-1.63c1.75-1.25,3.93-2.81,3.78-4.67a6.58,6.58,0,0,0-1.17-3.05,17.18,17.18,0,0,1-2.43-6.69c-1-6.19-4.13-23.49-5.66-30.86a32.26,32.26,0,0,0-6.32-12.9.39.39,0,0,1-.08-.14,12.23,12.23,0,0,0-8.64-6.65,28.08,28.08,0,0,0-17.95,3c-4.66,2.46-10.09,5.18-10.53,5.4-2.32,1.55-8.24,6-8.24,8.31v5.92c0,.5-.52.93-1.45,1.71-1.24,1-3.1,2.59-2.7,3.8l.77,2.31a.49.49,0,0,1-.2.58c-1.17.76-4.29,3.06-4.67,4.59L325.64,304a.54.54,0,0,1-.21.3c-.11.07-10.93,7.17-12.66,13.1a6.12,6.12,0,0,0,1,5.66,9.07,9.07,0,0,0,6,3.48c1.53,0,5-4.63,6.91-7.12a21.79,21.79,0,0,1,2.3-2.81,2.65,2.65,0,0,1,2.14-.4,3.3,3.3,0,0,0,3-.87,7,7,0,0,0,2.14-4.77.47.47,0,0,1,.09-.28c.06-.09.66-.92,3-2a6.81,6.81,0,0,0,3.1-3.09.5.5,0,0,1,.41-.3l3.35-.25Z" style="fill:#263238;clip-path:url(#freepik--clip-path-15--inject-127)"></path></clipPath><clipPath id="freepik--clip-path-21--inject-127"><path d="M351.92,290.74a.5.5,0,0,1-.43-.25c-.35-.6-8.56-14.82-8.82-19.27-.28-4.7,4.95-10.79,9.81-13.09,5.23-2.48,12.21-.38,16.82,1,5.45,1.63,9.24,3.49,11.28,5.53a4.72,4.72,0,0,1,1.66,3.92,2,2,0,0,1-1,1.51c-.7.35-1.51-.36-2.73-1.43-1.51-1.33-3.57-3.15-5.73-3.15-3.63,0-4.52.87-8.11,5s-9.12,19.25-9.17,19.41a.53.53,0,0,1-.39.32l-3.09.51Zm3.09-1h0ZM358.19,258A12.33,12.33,0,0,0,352.9,259c-4.57,2.16-9.49,7.81-9.23,12.13.23,3.86,7.31,16.41,8.51,18.52l2.46-.41c.8-2.16,5.86-15.56,9.25-19.44,3.69-4.22,4.82-5.32,8.87-5.32,2.54,0,4.77,2,6.39,3.4a7.06,7.06,0,0,0,1.69,1.27,1.11,1.11,0,0,0,.41-.76,3.84,3.84,0,0,0-1.38-3.06c-1.91-1.91-5.57-3.69-10.85-5.28C366,259.19,362,258,358.19,258Z" style="fill:#263238;clip-path:url(#freepik--clip-path--inject-127)"></path></clipPath><clipPath id="freepik--clip-path-22--inject-127"><path d="M353.91,293.79h-.12c-2.16-.36-6.05-15.37-7.82-22.68-2,1.76-5.57,4.68-6.85,4.16s-5.55-6.76-6.58-8.3c-.58-.26-2.84-1.3-3.75-1.75a.82.82,0,0,1-.43-.55c-.32-1.18,1.64-4.42,2.43-5.65l-1-3.91a.55.55,0,0,1,0-.18l.73-6.25a6.37,6.37,0,0,1-4.32-5.44,4.12,4.12,0,0,1,.76-3.35c1.37-1.76,4-2.24,4.83-2.35a10.07,10.07,0,0,1,3.67-3.06,3.33,3.33,0,0,1,2.61-.34,4.86,4.86,0,0,1,2.44,1.94,24.56,24.56,0,0,1,3.54-1.38c.39-.12,9.52-2.64,13.93,3.53,3.8,5.33,1.86,18,1.64,19.32.1.51.38,2.62-.53,7.82-.33,1.9-.7,5.1-1.14,8.81-.95,8-2,17.15-3.3,19.17A.89.89,0,0,1,353.91,293.79Zm-7.65-24.12a.32.32,0,0,1,.14,0,.5.5,0,0,1,.34.36c2.5,10.41,5.79,21.49,7.12,22.67,1.16-2.11,2.28-11.66,3.11-18.67.43-3.72.81-6.94,1.15-8.86,1-5.65.53-7.48.52-7.5a.55.55,0,0,1,0-.22c0-.13,2.24-13.5-1.46-18.67-4-5.6-12.48-3.26-12.83-3.15a25.69,25.69,0,0,0-3.78,1.51.5.5,0,0,1-.66-.21,4.24,4.24,0,0,0-2.11-1.86,2.33,2.33,0,0,0-1.85.26,8.46,8.46,0,0,0-3.39,2.87.51.51,0,0,1-.41.28s-3.05.27-4.38,2a3.14,3.14,0,0,0-.57,2.57c.7,4.22,3.92,4.73,3.95,4.74a.49.49,0,0,1,.43.55l-.76,6.6,1,4a.49.49,0,0,1-.07.39c-1.42,2.18-2.5,4.41-2.44,5,1.07.53,3.74,1.74,3.77,1.76a.46.46,0,0,1,.21.18c2.49,3.73,5.49,7.76,6.2,8s3.56-1.92,6.43-4.54A.5.5,0,0,1,346.26,269.67Z" style="fill:#263238;clip-path:url(#freepik--clip-path-2--inject-127)"></path></clipPath><clipPath id="freepik--clip-path-23--inject-127"><path d="M354.26,399.75c-5.47,0-11-.38-12.68-1.37q-2.13-1.25-2-2.76c.14-1.29,1.56-2.42,4.12-3.27,5.22-1.74,10.28-6.26,10.33-6.31l.08-.06c5.07-2.93,12.74,1.6,13.07,1.8a.44.44,0,0,1,.18.2c.13.24,3.14,6,3.14,8.68a2.16,2.16,0,0,1-.77,1.74c-1.11.91-3,.66-3.56.57A70.38,70.38,0,0,1,354.26,399.75Zm.42-12.93c-.53.47-5.42,4.73-10.64,6.47-2.07.69-3.36,1.6-3.44,2.44s.76,1.36,1.48,1.78c2.86,1.67,19.71,1.53,24,.46a.54.54,0,0,1,.22,0,4.19,4.19,0,0,0,2.85-.34,1.18,1.18,0,0,0,.4-1c0-2.21-2.51-7.23-3-8.09C365.59,388,358.92,384.42,354.68,386.82Z" style="fill:#263238;clip-path:url(#freepik--clip-path-3--inject-127)"></path></clipPath><clipPath id="freepik--clip-path-24--inject-127"><path d="M374.88,329.77c-3.15,0-10.34-.84-16.69-1.59-4.45-.52-8.29-1-9.44-1-3.29,0-5.59-1.27-5.88-3.25-.32-2.24,2.86-3.35,6-4.14,2.69-.67,15.43-3.32,18.55-4l-1.17-2a3.43,3.43,0,0,1-.55-2.74,2.73,2.73,0,0,1,.92-1.33,15.15,15.15,0,0,0-2.15-4.61,6.26,6.26,0,0,1-.41-5.89c-.71-1.17-3.86-6.43-4.79-10.16-1.08-4.33,2.54-8,2.7-8.17a.5.5,0,0,1,.7,0,.5.5,0,0,1,0,.71s-3.37,3.44-2.43,7.21c1,4,4.77,10.05,4.81,10.11a.5.5,0,0,1,0,.49s-1.37,2.84.22,5.12a15.61,15.61,0,0,1,2.39,5.32.5.5,0,0,1-.27.54,1.7,1.7,0,0,0-.75.95,2.56,2.56,0,0,0,.44,1.94l1.54,2.56a.49.49,0,0,1-.33.74c-.16,0-16.16,3.34-19.19,4.1-2.37.59-5.48,1.55-5.27,3s2.17,2.39,4.89,2.39c1.21,0,5.08.46,9.56,1,6,.71,13.48,1.58,16.57,1.58,7.9,0,12.1-1.88,12.84-5.74,1-5.42,1-7.31.78-7.95-.28-.84-.54-1.63-.28-5.82.18-2.81-1-5.4-1.85-7.11a9.11,9.11,0,0,1-.7-1.73,3.36,3.36,0,0,1,.54-2A6.11,6.11,0,0,0,387,294a23,23,0,0,0-2-5.5.49.49,0,0,1,0-.41s1.42-4.15-.45-6.72-2.8-2.88-2.81-2.89a.51.51,0,0,1-.33-.61.5.5,0,0,1,.59-.35c.21,0,1.31.44,3.36,3.27,1.94,2.66.94,6.47.65,7.42a24.59,24.59,0,0,1,2,5.57,7.06,7.06,0,0,1-.82,5,3,3,0,0,0-.46,1.41,8.88,8.88,0,0,0,.62,1.5,15.58,15.58,0,0,1,2,7.6c-.25,4,0,4.74.23,5.45.37,1.1.12,3.86-.75,8.45C387.45,329.77,378,329.77,374.88,329.77Z" style="fill:#263238;clip-path:url(#freepik--clip-path-4--inject-127)"></path></clipPath><clipPath id="freepik--clip-path-25--inject-127"><path d="M269,300.08a1.26,1.26,0,0,1-.62-.18c-1.81-1-3.27-7.56-3.71-9.69-1,0-3.58-.13-5-1.53-1.58-1.58-1.56-5.95-1.53-7a10.8,10.8,0,0,1-1.57-2.31c-.23-.71.42-1.21,1.11-1.74a5.17,5.17,0,0,0,1.23-1.19c.55-.93.41-2.5.2-4.67l0-.52c-.2-2.2,2-4.89,2.94-5.92-1.49-1.11-2.13-2.22-1.91-3.32.3-1.47,2.19-2.61,5.32-3.2,4.12-.79,5.75.21,6.27.68a29.32,29.32,0,0,1,5.61.69c1.83.43,5.53,2.85,7.68,6.72a10.87,10.87,0,0,1,.92,9,14.56,14.56,0,0,1-8,8.42c0,1.11-.13,3.89-.79,4.77-.14.19-.56.9-1,1.73-2.53,4.36-5.13,8.66-6.75,9.2A1.23,1.23,0,0,1,269,300.08Zm-3.92-10.88a.5.5,0,0,1,.49.41c.64,3.27,2.11,8.72,3.31,9.43.1,0,.14,0,.16,0,1.4-.46,4.77-6.27,6.21-8.75.61-1.05.93-1.61,1.1-1.83.41-.54.59-3,.59-4.51a.5.5,0,0,1,.33-.47,13.79,13.79,0,0,0,7.71-7.93,9.84,9.84,0,0,0-.85-8.23c-1.92-3.45-5.32-5.83-7-6.23a27.81,27.81,0,0,0-5.61-.67.51.51,0,0,1-.41-.21s-1.12-1.31-5.45-.49c-2.63.5-4.32,1.41-4.53,2.42-.15.75.55,1.68,2,2.62a.55.55,0,0,1,.22.37.49.49,0,0,1-.15.4c-.91.91-3.23,3.69-3.06,5.56l.05.52c.22,2.36.38,4.07-.35,5.27a5.71,5.71,0,0,1-1.47,1.47,3.23,3.23,0,0,0-.77.7,12.77,12.77,0,0,0,1.51,2.06.52.52,0,0,1,.12.34c-.06,1.41,0,5.31,1.23,6.5,1.42,1.42,4.61,1.23,4.65,1.22Z" style="fill:#263238;clip-path:url(#freepik--clip-path-5--inject-127)"></path></clipPath><clipPath id="freepik--clip-path-26--inject-127"><path d="M300.28,326.87a9.85,9.85,0,0,1-7.69-3.45l-9.88-19.06a.51.51,0,0,1,.21-.68.52.52,0,0,1,.68.21l9.84,19a9,9,0,0,0,7.75,2.94,3.77,3.77,0,0,0,3.28-1.71c.94-1.72.14-4.48-.93-6.48-2-3.7-3.72-7.52-5.27-10.89-3-6.49-5.56-12.09-8.32-14.13s-5.61-1.57-8.5,1.33a.51.51,0,0,1-.71,0,.5.5,0,0,1,0-.71c4.11-4.11,7.6-3,9.8-1.42,3,2.18,5.6,7.9,8.64,14.51,1.62,3.53,3.29,7.17,5.24,10.84.58,1.08,2.35,4.82.93,7.43a4.74,4.74,0,0,1-4.07,2.23C300.94,326.86,300.6,326.87,300.28,326.87Z" style="fill:#263238;clip-path:url(#freepik--clip-path-7--inject-127)"></path></clipPath><clipPath id="freepik--clip-path-27--inject-127"><path d="M238.65,386.29c-2.63,0-5-.21-6.13-.94-.83-.52-1.21-1.11-1.14-1.74.14-1.31,2.23-2.32,6.05-3.73,5.27-1.94,7.78-3.83,7.46-5.62-.06-.33-.32-1.41-.68-2.91-6.61-27.59-8.22-41.45-5.06-43.6,5.19-3.54,12.06-1.55,18.09.86,5.81,2.32,9.38,3.39,14,3.17s12.79-3.59,12.87-3.62a.52.52,0,0,1,.21,0,6.76,6.76,0,0,1,5.94,3.79c2,3.71,1.81,9.39-.49,13.22-3.62,6-10.24,6.19-19.22,5.73-7.74-.38-16-4.2-18.49-5.41-.08,4.21-.45,23.7-.45,25.52a30.34,30.34,0,0,0,.73,4.47,33.76,33.76,0,0,1,.88,5.6c0,2.95-2,4.85-5.08,4.85-.7,0-1.83.07-3.13.14C243,386.15,240.76,386.29,238.65,386.29Zm7.2-59.46a10.66,10.66,0,0,0-6.14,1.74c-1.85,1.27-2.41,9.68,5.47,42.55.38,1.57.63,2.61.69,3,.58,3.16-4.35,5.36-8.1,6.74-1.58.59-5.3,1.95-5.4,2.9,0,.21.22.49.69.79,1.77,1.13,8.1.75,11.88.53,1.32-.08,2.46-.15,3.19-.15,2.55,0,4.08-1.44,4.08-3.85a34.35,34.35,0,0,0-.85-5.4,29.3,29.3,0,0,1-.76-4.67c0-2,.46-26.09.46-26.34a.52.52,0,0,1,.25-.42.53.53,0,0,1,.49,0c.1.05,9.85,5.22,18.79,5.67s15,.31,18.31-5.26a13.26,13.26,0,0,0,.47-12.22,5.87,5.87,0,0,0-5-3.27c-1,.42-8.51,3.44-13.12,3.66-4.79.24-8.46-.86-14.4-3.24C253.29,328.11,249.42,326.83,245.85,326.83Z" style="fill:#263238;clip-path:url(#freepik--clip-path-8--inject-127)"></path></clipPath><clipPath id="freepik--clip-path-28--inject-127"><path d="M274.86,390.51c-.49,0-1,0-1.58,0s-1.36-.06-2.11-.09c-6.48-.26-10.72-.57-10.72-2.47s3.64-4.08,7.57-6.26l.24-.13c1.59-.89,3.71-4.78,5.95-10.95,1-2.64,1.62-10.22,2.25-17.55.57-6.59,1.1-12.81,1.86-15.82,1.7-6.8,5-10,9.69-9.54s5.87,7.45,5.94,8a24.51,24.51,0,0,1-1.17,12.15c-2.31,6.72-10.94,27.45-11.91,29.79-.65,1.56-.6,3.7-.54,5.77a19.37,19.37,0,0,1-.12,3.74C279.71,389.81,278.05,390.51,274.86,390.51Zm12.26-61.89c-3.79,0-6.35,2.89-7.83,8.82-.74,2.94-1.29,9.41-1.83,15.66-.64,7.4-1.3,15-2.31,17.81-2.39,6.59-4.55,10.45-6.4,11.48l-.24.13c-4.69,2.6-7.06,4.41-7.06,5.39s6.84,1.35,9.76,1.47c.75,0,1.47.05,2.12.09,4.57.22,5.52-.48,5.9-2.57a18.81,18.81,0,0,0,.1-3.54c-.06-2.07-.12-4.42.61-6.18,1-2.33,9.59-23,11.9-29.72A23.74,23.74,0,0,0,293,335.82v0c0-.07-.92-6.71-5-7.12A7.09,7.09,0,0,0,287.12,328.62Z" style="fill:#263238;clip-path:url(#freepik--clip-path-9--inject-127)"></path></clipPath><clipPath id="freepik--clip-path-29--inject-127"><path d="M147.82,401.17h-.08c-.14,0-14-2.23-20.93-2.23-3.7,0-9.33-.25-15.28-.52-5.72-.25-11.62-.52-17-.63-11.4-.23-15.27-.47-20.86-4s-7-18.14-3.87-26.91,12.49-9.26,12.58-9.26l67.32-1.38a.51.51,0,0,1,.51.53l-1.88,43.89a.51.51,0,0,1-.18.37A.54.54,0,0,1,147.82,401.17Zm1.35-43.88-66.76,1.36c-.08,0-8.85.55-11.67,8.59C67.83,375.5,69,389.74,74.19,393c5.37,3.35,9.16,3.58,20.35,3.81,5.4.11,11.31.38,17,.63,6,.27,11.56.52,15.24.52,6.24,0,17.87,1.74,20.53,2.15Z" style="fill:#263238;clip-path:url(#freepik--clip-path-10--inject-127)"></path></clipPath><clipPath id="freepik--clip-path-30--inject-127"><path d="M148.56,401.2l-.78,0c-4.16-.29-7.9-2.91-10.52-7.38a29.91,29.91,0,0,1,2.21-31.4c3.22-4.05,7.29-6.11,11.45-5.83s7.9,2.91,10.52,7.37a28,28,0,0,1,3.37,16h0a28.1,28.1,0,0,1-5.57,15.39C156.22,399.14,152.45,401.2,148.56,401.2Zm1.59-43.67c-3.58,0-7.07,1.93-9.9,5.48a29,29,0,0,0-2.13,30.28c2.45,4.17,5.91,6.61,9.73,6.88s7.59-1.67,10.6-5.45a28.9,28.9,0,0,0,2.13-30.28c-2.45-4.17-5.9-6.61-9.73-6.88C150.62,357.54,150.38,357.53,150.15,357.53Zm14.16,22.39h0Z" style="fill:#263238;clip-path:url(#freepik--clip-path-11--inject-127)"></path></clipPath><clipPath id="freepik--clip-path-31--inject-127"><path d="M119.25,287.23a.49.49,0,0,1-.28-.09l-9.61-6.41a.49.49,0,0,1-.21-.51l1.83-8.93a26.15,26.15,0,0,1,6.09-10.78c4.49-4.5,10.25-4.5,12.71-4.5,2.79,0,5.15,4.43,5.25,4.62a.47.47,0,0,1,0,.4s-1.36,3.87-1.58,5a4.08,4.08,0,0,0,.29,1.68,12.48,12.48,0,0,1,.63,3.72,10.13,10.13,0,0,1-2.09,5.42,7.74,7.74,0,0,0-.48.76c-.06.11-.12.25-.19.41-.49,1.15-1.42,3.3-4.11,3.52a22.56,22.56,0,0,1-6.1-.59l-1.7,6a.51.51,0,0,1-.31.33A.47.47,0,0,1,119.25,287.23Zm-9.06-7.14,8.77,5.84,1.64-5.75a.51.51,0,0,1,.6-.35,24.08,24.08,0,0,0,6.25.68c2.09-.18,2.8-1.83,3.28-2.93a4.09,4.09,0,0,1,.21-.46,9.37,9.37,0,0,1,.54-.87,9.14,9.14,0,0,0,1.92-4.86,11.74,11.74,0,0,0-.59-3.44,4.56,4.56,0,0,1-.31-2.15c.2-1,1.25-4.06,1.54-4.9-.69-1.24-2.54-3.89-4.26-3.89-2.53,0-7.8,0-12,4.2A25.9,25.9,0,0,0,112,271.52Z" style="fill:#263238;clip-path:url(#freepik--clip-path-12--inject-127)"></path></clipPath></defs><g id="freepik--background-simple--inject-127"><path d="M425.77,130.11s-34.06-48-95.65-47.9S231,125,188.85,149.84c-22.07,13-49.25,12.53-73.42,20.55C38.14,196.05,20.72,296.86,60.82,347.77c34.71,44.08,88.21,62.45,165.57,58.34s132-4.31,194.56-59.91S466.49,193.8,425.77,130.11Z" style="fill:#263238"></path><g style="opacity:0.14"><path d="M425.77,130.11s-34.06-48-95.65-47.9S231,125,188.85,149.84c-22.07,13-49.25,12.53-73.42,20.55C38.14,196.05,20.72,296.86,60.82,347.77c34.71,44.08,88.21,62.45,165.57,58.34s132-4.31,194.56-59.91S466.49,193.8,425.77,130.11Z" style="fill:#fff"></path></g><g style="clip-path:url(#freepik--clip-path-16--inject-127)"><polyline points="325.96 71.71 326.96 165.71 294.96 381.71 342.96 385.71 359.96 174.71 415.96 64.71 360.96 159.71 369.96 112.71 395.96 58.71 369.96 103.71 376.96 50.71 350.96 57.71 338.96 168.71 334.96 67.71" style="fill:#263238"></polyline><polyline points="325.96 71.71 326.96 165.71 294.96 381.71 342.96 385.71 359.96 174.71 415.96 64.71 360.96 159.71 369.96 112.71 395.96 58.71 369.96 103.71 376.96 50.71 350.96 57.71 338.96 168.71 334.96 67.71" style="fill:#fff;opacity:0.21"></polyline><polyline points="470.07 102.85 450.91 194.88 440.53 412.99 392.66 407.63 416.79 197.33 383.12 78.58 418.71 182.42 418.97 134.57 403.91 76.56 420.71 125.74 424.1 72.38 448.25 84.28 438.56 195.5 462.01 97.19" style="fill:#263238"></polyline><polyline points="470.07 102.85 450.91 194.88 440.53 412.99 392.66 407.63 416.79 197.33 383.12 78.58 418.71 182.42 418.97 134.57 403.91 76.56 420.71 125.74 424.1 72.38 448.25 84.28 438.56 195.5 462.01 97.19" style="fill:#fff;opacity:0.21"></polyline><polyline points="136 150.86 121.14 222.2 113.1 391.28 75.99 387.12 94.7 224.1 68.6 132.05 96.19 212.54 96.39 175.45 84.71 130.48 97.74 168.6 100.36 127.25 119.08 136.47 111.57 222.69 129.75 146.47" style="fill:#263238"></polyline><polyline points="136 150.86 121.14 222.2 113.1 391.28 75.99 387.12 94.7 224.1 68.6 132.05 96.19 212.54 96.39 175.45 84.71 130.48 97.74 168.6 100.36 127.25 119.08 136.47 111.57 222.69 129.75 146.47" style="fill:#fff;opacity:0.21"></polyline><polyline points="205.96 60.05 189.96 144.04 144.96 38.05 137.96 42.05 185.96 168.04 166.96 357.05 197.96 360.05 209.96 204.04 287.96 148.04 287.96 142.04 238.96 173.04 269.96 106.05 265.96 102.05 227.96 179.04 211.96 186.04 220.96 95.05 243.96 81.05 242.96 77.05 220.96 90.05 225.96 67.05" style="fill:#263238"></polyline><polyline points="205.96 60.05 189.96 144.04 144.96 38.05 137.96 42.05 185.96 168.04 166.96 357.05 197.96 360.05 209.96 204.04 287.96 148.04 287.96 142.04 238.96 173.04 269.96 106.05 265.96 102.05 227.96 179.04 211.96 186.04 220.96 95.05 243.96 81.05 242.96 77.05 220.96 90.05 225.96 67.05" style="fill:#fff;opacity:0.21"></polyline><path d="M457,184.05l-11,49-12.55-58.12L450,163.05v-6l-18,11.36-7-32.35,6.95-15-4-4L423.05,127,419,108.05l3.32,20.5L390,194.05l-16,7,9-91,23-14-1-4-22,13,5-23-20-7-16,84-21.49-50.64L348,74.05l-18.51,32L320.19,84.2,328,68.05l-8.43,14.59L307,53.05l-7,4L301.83,62,283,67.05l-3.33,30.81-11.57,7L267,77.05l-9,4,.32,29.76L220,134.05l3-33-9,23v15l-52,66,10-63-24,13-5.41,27.71-9.53,5.1L112,163.05l-4,6,18.14,22.51L86,213.05l10-54-18,13-8,52-3-38-4,11,4,43-32,124,27,2,23-140L128.84,195,137,205.05l-33,182,34,3,23-169,59-80,38.36-26.12.64,60.12-32,216,48,4,17-211,32.25-63.35L348,183.05l-19,189,31,3,12-156,58.21-41.8L442,250.05l-26,118,26-2,41-153,5-69Zm-321.75,6.4,6.78-4.8-2,10.4ZM306,82.47l2.89-2,4.72,12.39L302,113.05Zm.94-7.11,1.84,4.83-2.69,1.63ZM271,178.05,268.2,108.2l11.13-7.58Zm22-9,9-47,12.71-26.4,8.25,21.65Zm108,19,22.93-49.56L429,170.28Z" style="fill:#263238"></path><path d="M457,184.05l-11,49-12.55-58.12L450,163.05v-6l-18,11.36-7-32.35,6.95-15-4-4L423.05,127,419,108.05l3.32,20.5L390,194.05l-16,7,9-91,23-14-1-4-22,13,5-23-20-7-16,84-21.49-50.64L348,74.05l-18.51,32L320.19,84.2,328,68.05l-8.43,14.59L307,53.05l-7,4L301.83,62,283,67.05l-3.33,30.81-11.57,7L267,77.05l-9,4,.32,29.76L220,134.05l3-33-9,23v15l-52,66,10-63-24,13-5.41,27.71-9.53,5.1L112,163.05l-4,6,18.14,22.51L86,213.05l10-54-18,13-8,52-3-38-4,11,4,43-32,124,27,2,23-140L128.84,195,137,205.05l-33,182,34,3,23-169,59-80,38.36-26.12.64,60.12-32,216,48,4,17-211,32.25-63.35L348,183.05l-19,189,31,3,12-156,58.21-41.8L442,250.05l-26,118,26-2,41-153,5-69Zm-321.75,6.4,6.78-4.8-2,10.4ZM306,82.47l2.89-2,4.72,12.39L302,113.05Zm.94-7.11,1.84,4.83-2.69,1.63ZM271,178.05,268.2,108.2l11.13-7.58Zm22-9,9-47,12.71-26.4,8.25,21.65Zm108,19,22.93-49.56L429,170.28Z" style="fill:#fff;opacity:0.33"></path></g></g><g id="freepik--Floor--inject-127"><ellipse cx="241.41" cy="385.04" rx="203.33" ry="31.67" style="fill:#92E3A9"></ellipse><ellipse cx="241.41" cy="385.04" rx="203.33" ry="31.67" style="fill:#fff;opacity:0.5"></ellipse></g><g id="freepik--Tent--inject-127"><path d="M112.57,370.71H342.74S329.4,300,303.31,269.83s-70.73-40-102-35.36-50.44,29-55.08,37.68S112,351.58,112.57,370.71Z" style="fill:#92E3A9"></path><path d="M175.19,264c31.3-4.63,75.95,5.22,102,35.37,15,17.39,25.85,48.28,32.3,71.31h33.21S329.4,300,303.31,269.83s-70.73-40-102-35.36-50.44,29-55.08,37.68c-.46.86-1.16,2.33-2,4.29A74.05,74.05,0,0,1,175.19,264Z" style="opacity:0.12"></path><g style="opacity:0.12"><path d="M166.85,289.25,158,325.46a29.43,29.43,0,0,0,26.16,37.3h0a29.41,29.41,0,0,0,30.76-22.43L223.27,302a25.54,25.54,0,0,0-25.53-31.53l-7,.19A25.56,25.56,0,0,0,166.85,289.25Z"></path></g><path d="M120.12,340.52s24.49-64.06,69-78.34c0,0,45.3,22.44,52.23,78.34,0,0,4.51-30.44-2.44-58.76-5.21-21.17-20.56-49.11-59.3-40.39-18.48,9.24-29.93,24.32-33.37,30.78-3.09,5.79-17.22,39.07-26.16,66.31Z" style="fill:#263238"></path><path d="M189.08,262.18s-21.85-6.73-39.62,4.85a49.18,49.18,0,0,0-3.26,5.12c-3.09,5.79-17.22,39.07-26.16,66.31l.08,2.06S144.61,276.46,189.08,262.18Z" style="fill:#263238"></path><path d="M189.08,262.18s-21.85-6.73-39.62,4.85a49.18,49.18,0,0,0-3.26,5.12c-3.09,5.79-17.22,39.07-26.16,66.31l.08,2.06S144.61,276.46,189.08,262.18Z" style="fill:#fff;opacity:0.08"></path></g><g id="freepik--Trunk--inject-127"><path d="M410,374.52c-25.76-4-52.84-4-52.84-4s-8.35.59-17.72,1.83l-2.76-.45c-25.76-4-52.84-4-52.84-4S225.7,372,244.2,381.07c16.75,8.2,59,11.09,90.33,7.82,23.25,4.65,58.28,5.3,82.73,1.42C449,385.28,435.75,378.55,410,374.52Z" style="fill:#263238"></path><path d="M393.82,392.17s-13.92-2.23-21-2.23-21.06-.92-32.28-1.15-95-2.81-100.46-6.25-6.64-17.85-3.66-26.32,12.13-8.93,12.13-8.93l147.16,1Z" style="fill:#92E3A9"></path><path d="M393.82,392.67h-.08c-.14,0-14-2.23-20.93-2.23-3.7,0-9.33-.25-15.28-.52-5.72-.25-11.62-.52-17-.63-.94,0-94.63-2.52-100.71-6.32-5.63-3.52-6.95-18.15-3.87-26.92s12.48-9.25,12.58-9.26l147.18,1a.57.57,0,0,1,.36.16.55.55,0,0,1,.14.37l-1.88,43.89a.51.51,0,0,1-.18.37A.54.54,0,0,1,393.82,392.67ZM248.54,347.79c-.06,0-8.83.55-11.66,8.6-2.9,8.26-1.72,22.49,3.46,25.73,5.38,3.36,89.11,5.95,100.2,6.17,5.4.11,11.31.38,17,.63,5.95.27,11.56.52,15.24.52,6.24,0,17.87,1.74,20.53,2.15l1.83-42.82Z" style="fill:#263238"></path><g style="clip-path:url(#freepik--clip-path-17--inject-127)"><path d="M328.76,347.83l66.94.44-.14,3.15c-9.16,3-17.05,7-22.49,15.29-3.95,6-1.42,17.08.47,23.23h-.73c-1.2,0-2.61,0-4.15-.08l-7.25-34.15-2.34-1.33h-7.33c-4.67,0-13,9-15.07,17.5-1.37,5.62-2.5,12.63-3.11,16.73l-10.17-.32c0-8.25.12-27.74,1.68-34.25A11.78,11.78,0,0,1,328.76,347.83Zm-76.69,36.55s-.33-14.67,2-21,6.67-10.67,16.49-13a27.89,27.89,0,0,1,16.93.95,127.21,127.21,0,0,1-3.66,16.54c-2.91,10.48.24,18.19.24,18.19l7.34.67s-1.67-14.33,4.66-24.33,14-14,14-14l4.46-.65L253,347.32a17.36,17.36,0,0,0-4.89,7.39c-3,8.56-.85,24.74-.15,29.39,1.14.13,2.37.27,3.69.4Z" style="opacity:0.25"></path></g><path d="M353.73,358H350.9a.5.5,0,0,1-.5-.5.5.5,0,0,1,.5-.5h2.83a.5.5,0,0,1,.5.5A.5.5,0,0,1,353.73,358Z" style="fill:#263238"></path><path d="M363.81,358h-6a.5.5,0,0,1-.5-.5.5.5,0,0,1,.5-.5h6a18.2,18.2,0,0,0,2.51-.25,28.43,28.43,0,0,1,4.42-.38H377a30.5,30.5,0,0,0,7.42-1.24.5.5,0,0,1,.29,1,31,31,0,0,1-7.71,1.28h-6.3a26.81,26.81,0,0,0-4.27.37A18.51,18.51,0,0,1,363.81,358Z" style="fill:#263238"></path><path d="M375.78,362.1h-5.35a15.34,15.34,0,0,1-4.53-.45l-.92-.19a11.29,11.29,0,0,0-4.16-.13,12.62,12.62,0,0,1-1.73.14h-12.6a.5.5,0,0,1-.5-.5.5.5,0,0,1,.5-.5h12.6a11.52,11.52,0,0,0,1.6-.13,11.75,11.75,0,0,1,4.48.14l.93.19a14.66,14.66,0,0,0,4.33.43h5.35a.5.5,0,0,1,.5.5A.5.5,0,0,1,375.78,362.1Z" style="fill:#263238"></path><path d="M248.36,366.68H235.13a.51.51,0,0,1-.5-.5.5.5,0,0,1,.5-.5h17l3.42-.32a.53.53,0,0,1,.55.46.51.51,0,0,1-.46.54l-3.46.32Z" style="fill:#263238"></path><path d="M344.6,372.5a.5.5,0,0,1,0-1l3.78-.31a.51.51,0,0,1,.54.45.5.5,0,0,1-.46.54l-3.78.32Z" style="fill:#263238"></path><path d="M340.19,372.5h-.95c-1,0-52.32-1.43-74.34-2a.51.51,0,0,1-.49-.52.53.53,0,0,1,.52-.48c22,.61,73.34,2,74.31,2h.95a.5.5,0,0,1,.5.5A.51.51,0,0,1,340.19,372.5Z" style="fill:#263238"></path><path d="M259.29,370.3h0l-5.57-.16-7.88-.31a.51.51,0,0,1-.48-.52.5.5,0,0,1,.52-.48l7.88.31,5.56.16a.5.5,0,0,1,0,1Z" style="fill:#263238"></path><path d="M382.4,383.84H372l-3.86-.64h-2.75l-7.27-.32a.5.5,0,0,1-.48-.52.53.53,0,0,1,.53-.48l7.24.32h2.81l3.87.64H382.4a.5.5,0,0,1,0,1Z" style="fill:#263238"></path><path d="M350.27,381.32h0A9.48,9.48,0,0,1,347,381a.51.51,0,0,1-.32-.63.5.5,0,0,1,.64-.32,8.58,8.58,0,0,0,3,.29.5.5,0,0,1,.5.5A.5.5,0,0,1,350.27,381.32Z" style="fill:#263238"></path><path d="M373.58,381.63h0c-.08,0-7.57-.31-8.8-.31h-10.4a.51.51,0,0,1-.5-.5.5.5,0,0,1,.5-.5h10.4c1.25,0,8.53.3,8.84.31a.51.51,0,0,1,.48.52A.5.5,0,0,1,373.58,381.63Z" style="fill:#263238"></path><path d="M297.93,357.48H285.45a.51.51,0,0,1-.5-.5.5.5,0,0,1,.5-.5h12.48a.5.5,0,0,1,.5.5A.51.51,0,0,1,297.93,357.48Z" style="fill:#263238"></path><path d="M277.63,356.93h-.05a23.14,23.14,0,0,0-2.65-.19h-9.29A41.12,41.12,0,0,1,256,355c-1.82-.54-6.18-.22-8.28-.06-.65.05-1.14.08-1.36.08-.76,0-6.38.48-9.25.73a.5.5,0,0,1-.55-.45.5.5,0,0,1,.46-.54c.34,0,8.35-.74,9.34-.74.21,0,.67,0,1.29-.08,2.32-.17,6.64-.5,8.64.1a40.52,40.52,0,0,0,9.39,1.69h9.29a27.34,27.34,0,0,1,2.76.19.5.5,0,0,1-.06,1Z" style="fill:#263238"></path><path d="M325.32,378.27c-.27,0-1-.09-2.36-.27-2-.26-4.63-.6-6.45-.69a.5.5,0,0,1-.47-.52.48.48,0,0,1,.52-.48c1.86.09,4.56.44,6.53.7,1,.13,2,.26,2.23.26a.5.5,0,0,1,.5.5A.5.5,0,0,1,325.32,378.27Z" style="fill:#263238"></path><path d="M310.67,377h0l-2-.14c-2.29-.17-4.45-.32-5.33-.32-1.21,0-20.29-.23-22.61-.75a51.12,51.12,0,0,0-9.43-.72c-3.6,0-9.32.25-10.94.48-.73.11-2.59.13-4.75.15a49.33,49.33,0,0,0-7.15.32c-1.51.5-8.67.08-9.48,0a.5.5,0,0,1-.47-.53.49.49,0,0,1,.53-.47c3.11.19,8.1.36,9.11,0s3.64-.34,7.45-.37c2,0,3.95,0,4.62-.14,1.78-.25,7.75-.49,11.08-.49a52.33,52.33,0,0,1,9.64.74c2.12.48,20.35.73,22.4.73.92,0,3.09.15,5.4.32l2,.14a.5.5,0,0,1,0,1Z" style="fill:#263238"></path><ellipse cx="395.35" cy="370.36" rx="21.86" ry="14.99" transform="translate(-1.83 738.77) rotate(-85.98)" style="fill:#fff"></ellipse><path d="M394.56,392.7l-.78,0c-8.52-.6-14.75-11.09-13.88-23.39a28,28,0,0,1,5.57-15.39c3.22-4.05,7.28-6.12,11.45-5.83s7.9,2.91,10.53,7.37a29.93,29.93,0,0,1-2.21,31.41C402.22,390.64,398.45,392.7,394.56,392.7ZM396.15,349c-3.58,0-7.07,1.93-9.9,5.48a27,27,0,0,0-5.35,14.84c-.83,11.75,5,21.76,13,22.32,3.84.28,7.59-1.67,10.6-5.45a26.94,26.94,0,0,0,5.36-14.84h0a27,27,0,0,0-3.23-15.44c-2.45-4.17-5.9-6.61-9.73-6.88C396.62,349,396.38,349,396.15,349Z" style="fill:#263238"></path><g style="clip-path:url(#freepik--clip-path-18--inject-127)"><ellipse cx="395.35" cy="370.36" rx="21.86" ry="14.99" transform="translate(-1.83 738.77) rotate(-85.98)" style="opacity:0.25"></ellipse></g><path d="M397.11,387.65h-.56a11.87,11.87,0,0,1-9.21-5.62c-3.92-5.81-3.27-15.14,1.44-20.78a8.53,8.53,0,0,1,6.94-3.39,7.76,7.76,0,0,1,6,3.67c2.55,3.78,2.13,9.85-.94,13.51a5.63,5.63,0,0,1-4.58,2.24,5.12,5.12,0,0,1-4-2.43,7.84,7.84,0,0,1,.61-8.86,3.82,3.82,0,0,1,3.08-1.5,3.48,3.48,0,0,1,2.7,1.64,5.12,5.12,0,0,1-.4,5.88,2.67,2.67,0,0,1-2.12,1,2.4,2.4,0,0,1-1.87-1.13,3.46,3.46,0,0,1,.27-4,.5.5,0,0,1,.7-.07.52.52,0,0,1,.07.71,2.49,2.49,0,0,0-.21,2.78,1.42,1.42,0,0,0,1.09.69,1.6,1.6,0,0,0,1.3-.67,4.15,4.15,0,0,0,.34-4.69,2.5,2.5,0,0,0-1.92-1.19,2.81,2.81,0,0,0-2.27,1.14,6.78,6.78,0,0,0-.54,7.66,4.14,4.14,0,0,0,3.22,2,4.69,4.69,0,0,0,3.77-1.88c2.79-3.35,3.19-8.87.87-12.31a6.78,6.78,0,0,0-5.26-3.23,7.52,7.52,0,0,0-6.11,3c-4.45,5.33-5.06,14.11-1.38,19.58a10.89,10.89,0,0,0,8.43,5.18c3.56.18,7-1.54,9.78-4.85a.52.52,0,0,1,.71-.07.51.51,0,0,1,.06.71C404.32,385.81,400.78,387.65,397.11,387.65Z" style="fill:#263238"></path></g><g id="freepik--character-3--inject-127"><path d="M311.34,384.62a23.81,23.81,0,0,1-6.66,4.36c-4.1,1.79-8.72,3.58-6.92,5.63s13.58,1.54,15.88,1.29,7.95,1.28,11-.52,2-5.63,1-7.68-13.33-3.08-13.33-3.08Z" style="fill:#fff"></path><path d="M320.36,396.77c-1.25,0-2.53-.13-3.68-.24a18.83,18.83,0,0,0-3-.14c-.14,0-14.08,1.11-16.32-1.45a1.78,1.78,0,0,1-.48-1.61c.38-1.69,3.47-3,6.73-4.45l.84-.36a23.44,23.44,0,0,0,6.51-4.25.51.51,0,0,1,.36-.15h1c2.14.18,12.68,1.16,13.77,3.35,1.37,2.73,1.87,6.55-1.22,8.34A9.07,9.07,0,0,1,320.36,396.77Zm-6.1-1.4c.71,0,1.56.08,2.51.17,2.54.24,5.7.54,7.64-.59,3.2-1.87,1.25-6.18.83-7-.56-1.13-7-2.31-12.92-2.8h-.78a24.68,24.68,0,0,1-6.66,4.32l-.85.36c-2.76,1.2-5.89,2.56-6.15,3.75a.78.78,0,0,0,.25.74c1.46,1.66,12.17,1.47,15.46,1.11C313.79,395.38,314,395.37,314.26,395.37Z" style="fill:#263238"></path><g style="clip-path:url(#freepik--clip-path-19--inject-127)"><path d="M318.74,390.71c.67,1.67-2,.67-10.33,2.67-4.18,1-7.34,1.58-9.47,1.92,3.55,1.23,12.7.82,14.7.6,2.31-.26,7.95,1.28,11-.52s2-5.63,1-7.68-13.33-3.08-13.33-3.08h-1S318.07,389,318.74,390.71Z" style="fill:#92E3A9"></path><path d="M318.74,390.71c.67,1.67-2,.67-10.33,2.67-4.18,1-7.34,1.58-9.47,1.92,3.55,1.23,12.7.82,14.7.6,2.31-.26,7.95,1.28,11-.52s2-5.63,1-7.68-13.33-3.08-13.33-3.08h-1S318.07,389,318.74,390.71Z" style="fill:#fff;opacity:0.5"></path></g><path d="M356.44,327.74s-27.42-6.41-35.37-6.41-14.86-.77-16.39,8.46,4.61,32.54,6.4,37.92a60.11,60.11,0,0,1,2.31,8.71s-3.59,1.54-3.08,3.08a41.43,41.43,0,0,1,1,5.12s15.12,6.41,15.37,4.61-1.54-11.78-1.54-13.32-.53-32.66-.53-32.66,11.55,2.42,23.6,3.7,16.65-7.68,15.63-13.32S356.44,327.74,356.44,327.74Z" style="fill:#263238"></path><path d="M326.05,390c-3,0-12-3.7-14.91-4.94a.51.51,0,0,1-.3-.39,42.21,42.21,0,0,0-1-5c-.55-1.64,1.91-3,3-3.52a64.39,64.39,0,0,0-2.22-8.26c-1.81-5.42-8-28.72-6.43-38.17,1.5-9,7.83-8.93,15.19-8.88h1.7c7.84,0,33.83,6,35.44,6.41.64,0,6.82.62,7.85,6.3a11.88,11.88,0,0,1-3.13,9.78c-2.13,2.29-6.12,4.87-13.05,4.13-10.36-1.1-20.48-3.07-23-3.58.08,4.52.52,30.62.52,32,0,.57.3,2.58.61,4.71.51,3.53,1.09,7.53.93,8.68a.77.77,0,0,1-.41.58A1.52,1.52,0,0,1,326.05,390Zm-14.26-5.75c6.17,2.6,13.23,5.07,14.44,4.77a72.3,72.3,0,0,0-.94-8.28c-.34-2.35-.62-4.2-.62-4.85,0-1.52-.52-32.34-.53-32.65a.48.48,0,0,1,.18-.39.5.5,0,0,1,.42-.11c.12,0,11.67,2.43,23.55,3.7,6.51.69,10.24-1.69,12.21-3.82a10.84,10.84,0,0,0,2.87-8.92c-.93-5.17-6.71-5.47-6.95-5.48l-.1,0c-.27-.06-27.45-6.39-35.25-6.39h-1.7c-7.18-.05-12.84-.09-14.2,8.05-1.52,9.13,4.67,32.52,6.39,37.68a59.23,59.23,0,0,1,2.32,8.8.49.49,0,0,1-.3.53c-1.27.55-3,1.71-2.79,2.46A38.47,38.47,0,0,1,311.79,384.27Z" style="fill:#263238"></path><path d="M343.17,271.19s-8.49,5.67-8.49,8.75v5.92c0,.78-4.89,3.35-4.12,5.67l.77,2.31s-4.37,2.83-4.89,4.89-1.29,5.15-1.29,5.15-11.06,7.2-12.86,13.38,4.89,9.78,7.46,9.78,8.23-9,9.52-10,2.83.77,5.15-1.28a7.53,7.53,0,0,0,2.31-5.15,7.09,7.09,0,0,1,2.84-1.8,7.28,7.28,0,0,0,3.34-3.35l3.35-.26s5.92,18,6.43,19.31,3.6,2.83,7.21,2.83,29.59,4.37,30.88,2.83,6.17-3.61,5.92-6.69-2.58-3.61-3.61-9.78-4.11-23.42-5.66-30.88A32.55,32.55,0,0,0,381,269.65a12.6,12.6,0,0,0-9-6.95,28.65,28.65,0,0,0-18.27,3.09C348.83,268.36,343.17,271.19,343.17,271.19Z" style="fill:#fff"></path><path d="M388.54,331c-3.13,0-9.12-.71-18.88-2-4.59-.61-8.55-1.14-9.76-1.14-3.84,0-7.07-1.63-7.67-3.15-.48-1.2-5.45-16.3-6.33-19l-2.67.21a7.65,7.65,0,0,1-3.46,3.32,8.42,8.42,0,0,0-2.54,1.54,7.93,7.93,0,0,1-2.48,5.33A4.24,4.24,0,0,1,331,317.2c-.68-.07-1.05-.09-1.41.19a25,25,0,0,0-2.12,2.64c-3.11,4.11-5.83,7.51-7.71,7.51s-5-1.48-6.76-3.88a7.17,7.17,0,0,1-1.18-6.54c1.73-5.94,11.46-12.59,12.91-13.55l1.24-5c.47-1.92,3.68-4.23,4.77-5l-.65-2c-.62-1.85,1.48-3.6,3-4.88a6.81,6.81,0,0,0,1.1-1v-5.83c0-3.26,7.82-8.57,8.71-9.16l.05,0c.06,0,5.72-2.86,10.55-5.4a29,29,0,0,1,18.6-3.14,13,13,0,0,1,9.34,7.17,32.85,32.85,0,0,1,6.49,13.29c1.53,7.39,4.63,24.71,5.67,30.91a16.37,16.37,0,0,0,2.3,6.35,7.4,7.4,0,0,1,1.3,3.47c.21,2.43-2.23,4.17-4.19,5.57a10.8,10.8,0,0,0-1.84,1.48C390.88,330.79,390,331,388.54,331Zm-42.28-26.28a.49.49,0,0,1,.47.34c.06.18,5.92,18,6.42,19.27.42,1,3.25,2.52,6.75,2.52,1.28,0,5.08.5,9.89,1.15,7.29,1,19.49,2.59,20.63,1.83a11.46,11.46,0,0,1,2-1.63c1.75-1.25,3.93-2.81,3.78-4.67a6.58,6.58,0,0,0-1.17-3.05,17.18,17.18,0,0,1-2.43-6.69c-1-6.19-4.13-23.49-5.66-30.86a32.26,32.26,0,0,0-6.32-12.9.39.39,0,0,1-.08-.14,12.23,12.23,0,0,0-8.64-6.65,28.08,28.08,0,0,0-17.95,3c-4.66,2.46-10.09,5.18-10.53,5.4-2.32,1.55-8.24,6-8.24,8.31v5.92c0,.5-.52.93-1.45,1.71-1.24,1-3.1,2.59-2.7,3.8l.77,2.31a.49.49,0,0,1-.2.58c-1.17.76-4.29,3.06-4.67,4.59L325.64,304a.54.54,0,0,1-.21.3c-.11.07-10.93,7.17-12.66,13.1a6.12,6.12,0,0,0,1,5.66,9.07,9.07,0,0,0,6,3.48c1.53,0,5-4.63,6.91-7.12a21.79,21.79,0,0,1,2.3-2.81,2.65,2.65,0,0,1,2.14-.4,3.3,3.3,0,0,0,3-.87,7,7,0,0,0,2.14-4.77.47.47,0,0,1,.09-.28c.06-.09.66-.92,3-2a6.81,6.81,0,0,0,3.1-3.09.5.5,0,0,1,.41-.3l3.35-.25Z" style="fill:#263238"></path><g style="clip-path:url(#freepik--clip-path-20--inject-127)"><path d="M387.43,282.78A32.55,32.55,0,0,0,381,269.65a12.6,12.6,0,0,0-9-6.95,26.52,26.52,0,0,0-11.67.53l-.89,14.42s3.75-8.61,9.49-7.06,9.49,14.12,7.5,17.21-3.31,3.09,2.43,6S383,298,380,299.28s-9.49,1.76-6.18,3.09,15.67,7.5,10.82,8.38-16.33-3.09-12.8.44,12.13,5.52,9.93,7.51-13.46-1.55-9.49.44,5.29,4.85,3.75,5.74-7.28.88-13.46,1.32c-1.92.14-4.07.36-6.13.6a12.82,12.82,0,0,0,3.51.5c3.6,0,29.59,4.37,30.88,2.83s6.17-3.61,5.92-6.69-2.58-3.61-3.61-9.78S389,290.24,387.43,282.78Z" style="fill:#92E3A9"></path><path d="M387.43,282.78A32.55,32.55,0,0,0,381,269.65a12.6,12.6,0,0,0-9-6.95,26.52,26.52,0,0,0-11.67.53l-.89,14.42s3.75-8.61,9.49-7.06,9.49,14.12,7.5,17.21-3.31,3.09,2.43,6S383,298,380,299.28s-9.49,1.76-6.18,3.09,15.67,7.5,10.82,8.38-16.33-3.09-12.8.44,12.13,5.52,9.93,7.51-13.46-1.55-9.49.44,5.29,4.85,3.75,5.74-7.28.88-13.46,1.32c-1.92.14-4.07.36-6.13.6a12.82,12.82,0,0,0,3.51.5c3.6,0,29.59,4.37,30.88,2.83s6.17-3.61,5.92-6.69-2.58-3.61-3.61-9.78S389,290.24,387.43,282.78Z" style="fill:#fff;opacity:0.5"></path></g><polyline points="340.04 285.71 346.26 305.17 336.96 290.32" style="fill:#fff"></polyline><path d="M346.26,305.67a.52.52,0,0,1-.43-.24l-9.29-14.84a.49.49,0,0,1,.16-.69.49.49,0,0,1,.68.16l7.19,11.47-5-15.66a.5.5,0,0,1,.95-.31L346.73,305a.5.5,0,0,1-.26.61A.54.54,0,0,1,346.26,305.67Z" style="fill:#263238"></path><path d="M324.66,309.29a10.17,10.17,0,0,1,3.08,7.94" style="fill:#fff"></path><path d="M327.74,317.73h0a.49.49,0,0,1-.47-.52,9.7,9.7,0,0,0-2.9-7.54.5.5,0,1,1,.65-.76,10.58,10.58,0,0,1,3.25,8.35A.51.51,0,0,1,327.74,317.73Z" style="fill:#263238"></path><path d="M355,289.72s5.66-15.44,9.26-19.55,4.63-5.15,8.49-5.15,7.21,5.15,8.24,4.63,1.29-2.57-.77-4.63-5.92-3.86-11.07-5.41-11.58-3.34-16.47-1-9.78,8.24-9.52,12.61,8.75,19.05,8.75,19.05Z" style="fill:#fff"></path><path d="M351.92,290.74a.5.5,0,0,1-.43-.25c-.35-.6-8.56-14.82-8.82-19.27-.28-4.7,4.95-10.79,9.81-13.09,5.23-2.48,12.21-.38,16.82,1,5.45,1.63,9.24,3.49,11.28,5.53a4.72,4.72,0,0,1,1.66,3.92,2,2,0,0,1-1,1.51c-.7.35-1.51-.36-2.73-1.43-1.51-1.33-3.57-3.15-5.73-3.15-3.63,0-4.52.87-8.11,5s-9.12,19.25-9.17,19.41a.53.53,0,0,1-.39.32l-3.09.51Zm3.09-1h0ZM358.19,258A12.33,12.33,0,0,0,352.9,259c-4.57,2.16-9.49,7.81-9.23,12.13.23,3.86,7.31,16.41,8.51,18.52l2.46-.41c.8-2.16,5.86-15.56,9.25-19.44,3.69-4.22,4.82-5.32,8.87-5.32,2.54,0,4.77,2,6.39,3.4a7.06,7.06,0,0,0,1.69,1.27,1.11,1.11,0,0,0,.41-.76,3.84,3.84,0,0,0-1.38-3.06c-1.91-1.91-5.57-3.69-10.85-5.28C366,259.19,362,258,358.19,258Z" style="fill:#263238"></path><g style="clip-path:url(#freepik--clip-path-21--inject-127)"><path d="M369.16,259.61c-4.19-1.25-9.22-2.68-13.59-1.92L357,272.8s4.21-3.11,5.74-2.87-1.33,4.19-1.33,4.19l.37-.07a22.06,22.06,0,0,1,2.49-3.88c3.6-4.12,4.63-5.15,8.49-5.15s7.21,5.15,8.24,4.63,1.29-2.57-.77-4.63S374.31,261.16,369.16,259.61Z" style="fill:#92E3A9"></path><path d="M369.16,259.61c-4.19-1.25-9.22-2.68-13.59-1.92L357,272.8s4.21-3.11,5.74-2.87-1.33,4.19-1.33,4.19l.37-.07a22.06,22.06,0,0,1,2.49-3.88c3.6-4.12,4.63-5.15,8.49-5.15s7.21,5.15,8.24,4.63,1.29-2.57-.77-4.63S374.31,261.16,369.16,259.61Z" style="fill:#fff;opacity:0.5"></path></g><path d="M331.07,248.29,330.3,255l1,4.12s-3.35,5.15-2.32,5.66,3.86,1.8,3.86,1.8,5.15,7.72,6.44,8.24,6.95-4.63,6.95-4.63,6.17,25.73,8,22.9,3.35-21.88,4.38-27.79.51-7.72.51-7.72,2.32-13.64-1.54-19.05-11.58-3.86-13.38-3.34a26.47,26.47,0,0,0-3.86,1.54s-1.8-3.35-4.63-1.8A8.57,8.57,0,0,0,332.1,238s-6.17.51-5.4,5.14S331.07,248.29,331.07,248.29Z" style="fill:#fff"></path><path d="M353.91,293.79h-.12c-2.16-.36-6.05-15.37-7.82-22.68-2,1.76-5.57,4.68-6.85,4.16s-5.55-6.76-6.58-8.3c-.58-.26-2.84-1.3-3.75-1.75a.82.82,0,0,1-.43-.55c-.32-1.18,1.64-4.42,2.43-5.65l-1-3.91a.55.55,0,0,1,0-.18l.73-6.25a6.37,6.37,0,0,1-4.32-5.44,4.12,4.12,0,0,1,.76-3.35c1.37-1.76,4-2.24,4.83-2.35a10.07,10.07,0,0,1,3.67-3.06,3.33,3.33,0,0,1,2.61-.34,4.86,4.86,0,0,1,2.44,1.94,24.56,24.56,0,0,1,3.54-1.38c.39-.12,9.52-2.64,13.93,3.53,3.8,5.33,1.86,18,1.64,19.32.1.51.38,2.62-.53,7.82-.33,1.9-.7,5.1-1.14,8.81-.95,8-2,17.15-3.3,19.17A.89.89,0,0,1,353.91,293.79Zm-7.65-24.12a.32.32,0,0,1,.14,0,.5.5,0,0,1,.34.36c2.5,10.41,5.79,21.49,7.12,22.67,1.16-2.11,2.28-11.66,3.11-18.67.43-3.72.81-6.94,1.15-8.86,1-5.65.53-7.48.52-7.5a.55.55,0,0,1,0-.22c0-.13,2.24-13.5-1.46-18.67-4-5.6-12.48-3.26-12.83-3.15a25.69,25.69,0,0,0-3.78,1.51.5.5,0,0,1-.66-.21,4.24,4.24,0,0,0-2.11-1.86,2.33,2.33,0,0,0-1.85.26,8.46,8.46,0,0,0-3.39,2.87.51.51,0,0,1-.41.28s-3.05.27-4.38,2a3.14,3.14,0,0,0-.57,2.57c.7,4.22,3.92,4.73,3.95,4.74a.49.49,0,0,1,.43.55l-.76,6.6,1,4a.49.49,0,0,1-.07.39c-1.42,2.18-2.5,4.41-2.44,5,1.07.53,3.74,1.74,3.77,1.76a.46.46,0,0,1,.21.18c2.49,3.73,5.49,7.76,6.2,8s3.56-1.92,6.43-4.54A.5.5,0,0,1,346.26,269.67Z" style="fill:#263238"></path><g style="clip-path:url(#freepik--clip-path-22--inject-127)"><path d="M359.12,257.56s2.32-13.64-1.54-19.05c-3.21-4.49-9.08-4.18-12-3.65l-6.53,12.92s-2.13,7.58-1.91,8.46,3.75,2.87,4.19,7.29-1.62,7.17,1.84,7.66a10,10,0,0,0,1.73.15l.42-.35a1.32,1.32,0,0,0-.24-.18l.41,0,.77-.67s.06.28.18.75l9,.77,1.82,3.94c.51-4.25,1-8.19,1.33-10.35C359.64,259.36,359.12,257.56,359.12,257.56Z" style="fill:#92E3A9"></path><path d="M359.12,257.56s2.32-13.64-1.54-19.05c-3.21-4.49-9.08-4.18-12-3.65l-6.53,12.92s-2.13,7.58-1.91,8.46,3.75,2.87,4.19,7.29-1.62,7.17,1.84,7.66a10,10,0,0,0,1.73.15l.42-.35a1.32,1.32,0,0,0-.24-.18l.41,0,.77-.67s.06.28.18.75l9,.77,1.82,3.94c.51-4.25,1-8.19,1.33-10.35C359.64,259.36,359.12,257.56,359.12,257.56Z" style="fill:#fff;opacity:0.5"></path></g><path d="M357.58,238.51c-3.86-5.4-11.58-3.86-13.38-3.34a26.47,26.47,0,0,0-3.86,1.54s-1.8-3.35-4.63-1.8A8.57,8.57,0,0,0,332.1,238s-6.17.51-5.4,5.14,4.37,5.15,4.37,5.15l8-.51s-3.34,4.37.26,5.4,5.15,1.54,5.15,1.54,0,3.09,1.54,3.35,1-3.09,2.57-4.37,4.38-1,4.63,2.31.26,4.89.26,4.89,2.51.66,5.78-2.31a4.61,4.61,0,0,0-.12-1S361.44,243.92,357.58,238.51Z" style="fill:#263238"></path><path d="M354.13,261.46a3.36,3.36,0,0,1-.8-.08.49.49,0,0,1-.37-.48s0-1.57-.25-4.85a2.64,2.64,0,0,0-1.38-2.42,2.48,2.48,0,0,0-2.44.45,4.47,4.47,0,0,0-1.06,2.3c-.29,1.07-.65,2.4-1.91,2.18-1.6-.26-1.9-2.53-1.95-3.47-.63-.2-2.17-.68-4.8-1.43a2.57,2.57,0,0,1-1.91-1.63c-.4-1.23.28-2.75.82-3.69l-7,.45H331s-4-.63-4.79-5.56a4.12,4.12,0,0,1,.76-3.35c1.37-1.76,4-2.24,4.83-2.35a10.07,10.07,0,0,1,3.67-3.06,3.33,3.33,0,0,1,2.61-.34,4.86,4.86,0,0,1,2.44,1.94,24.56,24.56,0,0,1,3.54-1.38c.39-.12,9.52-2.64,13.93,3.53,3.8,5.33,1.86,18,1.64,19.32a8.21,8.21,0,0,1,.11,1,.5.5,0,0,1-.16.4A8.23,8.23,0,0,1,354.13,261.46Zm-.17-1c.73,0,2.52-.11,4.77-2.09a6.13,6.13,0,0,0-.09-.69.49.49,0,0,1,0-.21c0-.13,2.24-13.5-1.46-18.67-4-5.6-12.48-3.26-12.83-3.15a25.69,25.69,0,0,0-3.78,1.51.5.5,0,0,1-.66-.21,4.24,4.24,0,0,0-2.11-1.86,2.33,2.33,0,0,0-1.85.26,8.46,8.46,0,0,0-3.39,2.87.51.51,0,0,1-.41.28s-3.05.27-4.38,2a3.14,3.14,0,0,0-.57,2.57c.66,4,3.52,4.65,3.91,4.73l7.92-.51a.5.5,0,0,1,.43.8c-.48.62-1.62,2.48-1.24,3.64a1.62,1.62,0,0,0,1.24,1c3.57,1,5.15,1.55,5.16,1.55a.5.5,0,0,1,.35.47c0,.87.27,2.72,1.12,2.86.34.05.48-.32.78-1.46a5.17,5.17,0,0,1,1.39-2.81,3.42,3.42,0,0,1,3.47-.6,3.5,3.5,0,0,1,2,3.26C353.88,258.33,353.94,259.79,354,260.46Z" style="fill:#263238"></path><path d="M346.26,270.17l3.08-3.09.52-2.58s1.8,0,2.83-3.08" style="fill:#fff"></path><path d="M346.26,270.67a.51.51,0,0,1-.36-.15.51.51,0,0,1,0-.71l3-3,.49-2.42a.5.5,0,0,1,.49-.41c.05,0,1.47-.08,2.36-2.74a.5.5,0,0,1,.63-.32.51.51,0,0,1,.32.63c-.84,2.51-2.2,3.19-2.89,3.37l-.45,2.23a.43.43,0,0,1-.13.26l-3.09,3.09A.5.5,0,0,1,346.26,270.67Z" style="fill:#263238"></path><path d="M321.57,322.19a7,7,0,0,0-5.17-1.84c-3.08.26-1.8,4.89-1.54,8.75a23.06,23.06,0,0,0,3.09,9.52c1.29,2.32,4.63,5.15,6.69,4.63s.26-4.89.26-6.69v-1.8s1.54,3.09,2.83,2.83,1-1.54.25-2.83a10.44,10.44,0,0,1-1.37-5.22C326.61,327.49,324.4,324.51,321.57,322.19Z" style="fill:#fff"></path><path d="M324.13,343.81c-2.35,0-5.43-2.81-6.62-4.95a23.2,23.2,0,0,1-3.15-9.73c-.05-.75-.14-1.52-.23-2.29-.28-2.5-.55-4.87.49-6.14a2.41,2.41,0,0,1,1.74-.85,7.41,7.41,0,0,1,5.55,2c3.16,2.59,5.2,5.62,5.2,7.72a9.88,9.88,0,0,0,1.3,5,3.28,3.28,0,0,1,.59,2.73,1.52,1.52,0,0,1-1.17.85c-.91.19-1.79-.67-2.43-1.54v0a11.69,11.69,0,0,0,.31,2c.43,2.1,1,4.72-.95,5.2A2.59,2.59,0,0,1,324.13,343.81Zm-7.21-23a3.77,3.77,0,0,0-.47,0,1.41,1.41,0,0,0-1.06.49c-.77.94-.51,3.2-.26,5.39.09.78.18,1.57.23,2.33a22.24,22.24,0,0,0,3,9.32c1.27,2.29,4.42,4.82,6.13,4.39,1-.25.56-2.34.21-4a12.41,12.41,0,0,1-.33-2.19v-1.8a.51.51,0,0,1,.38-.49.5.5,0,0,1,.56.27c.58,1.15,1.66,2.67,2.29,2.56.36-.07.43-.23.45-.28.12-.26,0-.87-.52-1.8a11,11,0,0,1-1.45-5.48c0-1.76-2-4.62-4.86-7l0,0A6.7,6.7,0,0,0,316.92,320.83Z" style="fill:#263238"></path><path d="M345.42,321.59s-6.15,1.28-8.2,3.84-2.56,10-2.56,11.27,2.3,5.13,3.58,4.62.52-3.08.52-3.08l1.79-4.35s1.79,1.79,2.05-.26,1.28-2.82,2.56-5.38a9.92,9.92,0,0,0,1.28-3.85Z" style="fill:#fff"></path><path d="M338,341.86a1.72,1.72,0,0,1-1-.35,8.27,8.27,0,0,1-2.85-4.81c0-1.28.49-8.86,2.67-11.58s8.23-4,8.49-4a.49.49,0,0,1,.57.32l1,2.81a.57.57,0,0,1,0,.18,10.27,10.27,0,0,1-1.33,4.06c-.46.93-.89,1.61-1.26,2.22a6.9,6.9,0,0,0-1.26,3c-.09.74-.38,1.2-.86,1.36a1.72,1.72,0,0,1-1.48-.35l-1.47,3.57c.18.69.63,2.92-.85,3.51A1.1,1.1,0,0,1,338,341.86Zm7.1-19.69c-1.4.34-5.88,1.55-7.49,3.57-1.84,2.3-2.45,9.29-2.45,11a7.59,7.59,0,0,0,2.41,4c.21.14.39.2.49.16.64-.25.42-1.8.22-2.46a.5.5,0,0,1,0-.34l1.8-4.35a.48.48,0,0,1,.36-.3.5.5,0,0,1,.45.13c.35.35.85.64,1,.58s.14-.14.19-.54a7.76,7.76,0,0,1,1.4-3.41,24.09,24.09,0,0,0,1.21-2.14,10.75,10.75,0,0,0,1.23-3.54Z" style="fill:#263238"></path><path d="M355.15,348.75s24.09,4.61,31,4.1,11-9,9.48-16.15-6.92-10.25-14.86-10.5-32-3.59-37.93,0S337,347.21,355.15,348.75Z" style="fill:#263238"></path><path d="M384.93,353.39c-8,0-28.61-3.91-29.84-4.15-12-1-15.1-8.58-15.85-11.79-1.13-4.8.31-9.83,3.36-11.68,4.6-2.81,19.35-1.56,30.13-.65,3.3.28,6.16.52,8.06.58,8.69.28,13.85,3.95,15.34,10.9a15.86,15.86,0,0,1-2.65,12.51,10.09,10.09,0,0,1-7.28,4.24C385.82,353.37,385.39,353.39,384.93,353.39ZM354,325.05c-4.86,0-9,.39-10.91,1.58-2.65,1.61-3.93,6.26-2.91,10.59.71,3,3.58,10.07,15,11h.05c.24,0,24.1,4.59,30.87,4.09a9,9,0,0,0,6.56-3.84,14.8,14.8,0,0,0,2.47-11.7c-1.4-6.54-6.11-9.84-14.39-10.11-1.93-.06-4.8-.31-8.12-.59C367.11,325.65,360,325.05,354,325.05Z" style="fill:#263238"></path><path d="M354.39,386.41s-5.13,4.62-10.51,6.41c-3.92,1.31-5.12,3.33-2.05,5.13s20.24,1.53,24.34.51c0,0,3.85.77,3.85-1.8s-3.08-8.45-3.08-8.45S359.25,383.6,354.39,386.41Z" style="fill:#fff"></path><path d="M354.26,399.75c-5.47,0-11-.38-12.68-1.37q-2.13-1.25-2-2.76c.14-1.29,1.56-2.42,4.12-3.27,5.22-1.74,10.28-6.26,10.33-6.31l.08-.06c5.07-2.93,12.74,1.6,13.07,1.8a.44.44,0,0,1,.18.2c.13.24,3.14,6,3.14,8.68a2.16,2.16,0,0,1-.77,1.74c-1.11.91-3,.66-3.56.57A70.38,70.38,0,0,1,354.26,399.75Zm.42-12.93c-.53.47-5.42,4.73-10.64,6.47-2.07.69-3.36,1.6-3.44,2.44s.76,1.36,1.48,1.78c2.86,1.67,19.71,1.53,24,.46a.54.54,0,0,1,.22,0,4.19,4.19,0,0,0,2.85-.34,1.18,1.18,0,0,0,.4-1c0-2.21-2.51-7.23-3-8.09C365.59,388,358.92,384.42,354.68,386.82Z" style="fill:#263238"></path><g style="clip-path:url(#freepik--clip-path-23--inject-127)"><path d="M365.07,394.38c-1.33.33-7.15,3.47-23.24,3.57,3.07,1.79,20.24,1.53,24.34.51,0,0,3.85.77,3.85-1.8s-3.08-8.45-3.08-8.45a23.64,23.64,0,0,0-3.22-1.52L358.41,388S366.41,394,365.07,394.38Z" style="fill:#92E3A9"></path><path d="M365.07,394.38c-1.33.33-7.15,3.47-23.24,3.57,3.07,1.79,20.24,1.53,24.34.51,0,0,3.85.77,3.85-1.8s-3.08-8.45-3.08-8.45a23.64,23.64,0,0,0-3.22-1.52L358.41,388S366.41,394,365.07,394.38Z" style="fill:#fff;opacity:0.5"></path></g><path d="M340.81,329.53s-3.08,3.07-2.31,10,12,31.26,14.35,35.88,1.28,5.63,1.28,5.63-2.56.26-2.56,2.05a8.41,8.41,0,0,0,1,3.59s13.33,4.1,14.61,4.36,1-2.57.77-4.36a38.59,38.59,0,0,0-1.28-4.87s-3.34-22.8-3.34-29.72-1.53-15.63-6.15-18.19" style="fill:#263238"></path><path d="M367.36,391.54a1.18,1.18,0,0,1-.26,0c-1.29-.26-14.11-4.2-14.66-4.37a.49.49,0,0,1-.28-.23,8.78,8.78,0,0,1-1.09-3.84c0-1.84,2-2.37,2.74-2.5.1-.36.24-1.66-1.41-5s-13.58-28.69-14.4-36c-.78-7.08,2.32-10.27,2.45-10.4a.5.5,0,0,1,.71,0,.51.51,0,0,1,0,.71s-2.89,3-2.16,9.59c.75,6.76,11.95,31,14.3,35.7s1.4,6,1.18,6.22a.49.49,0,0,1-.3.14s-2.11.24-2.11,1.55a7.65,7.65,0,0,0,.87,3.17c4.65,1.44,13.38,4.09,14.36,4.29.07,0,.09,0,.11,0s.5-.73.06-3.78a37.81,37.81,0,0,0-1.26-4.78c-.16-1-3.36-23-3.36-29.88s-1.54-15.34-5.89-17.76a.49.49,0,0,1-.19-.68.5.5,0,0,1,.68-.19c4.72,2.62,6.4,11.34,6.4,18.63,0,6.8,3.3,29.42,3.33,29.65a35.7,35.7,0,0,1,1.28,4.87c.38,2.62.26,4.06-.36,4.65A1.08,1.08,0,0,1,367.36,391.54Z" style="fill:#263238"></path><path d="M362.33,281.36s-3.59,3.58-2.56,7.68,4.87,10.25,4.87,10.25-1.54,3.08.25,5.64a15,15,0,0,1,2.31,5.13s-2.05,1-.51,3.58l1.53,2.57s-16.14,3.33-19.22,4.1-5.89,1.79-5.63,3.58,2.56,2.82,5.38,2.82,20.75,2.56,26.13,2.56,12.3-.77,13.33-6.15,1-7.43.77-8.2-.51-1.53-.26-5.63-2.3-7.69-2.56-9,2-3.08,1.28-6.41a23.9,23.9,0,0,0-2.05-5.64s1.54-4.35-.51-7.17S381.8,278,381.8,278" style="fill:#fff"></path><path d="M374.88,329.77c-3.15,0-10.34-.84-16.69-1.59-4.45-.52-8.29-1-9.44-1-3.29,0-5.59-1.27-5.88-3.25-.32-2.24,2.86-3.35,6-4.14,2.69-.67,15.43-3.32,18.55-4l-1.17-2a3.43,3.43,0,0,1-.55-2.74,2.73,2.73,0,0,1,.92-1.33,15.15,15.15,0,0,0-2.15-4.61,6.26,6.26,0,0,1-.41-5.89c-.71-1.17-3.86-6.43-4.79-10.16-1.08-4.33,2.54-8,2.7-8.17a.5.5,0,0,1,.7,0,.5.5,0,0,1,0,.71s-3.37,3.44-2.43,7.21c1,4,4.77,10.05,4.81,10.11a.5.5,0,0,1,0,.49s-1.37,2.84.22,5.12a15.61,15.61,0,0,1,2.39,5.32.5.5,0,0,1-.27.54,1.7,1.7,0,0,0-.75.95,2.56,2.56,0,0,0,.44,1.94l1.54,2.56a.49.49,0,0,1-.33.74c-.16,0-16.16,3.34-19.19,4.1-2.37.59-5.48,1.55-5.27,3s2.17,2.39,4.89,2.39c1.21,0,5.08.46,9.56,1,6,.71,13.48,1.58,16.57,1.58,7.9,0,12.1-1.88,12.84-5.74,1-5.42,1-7.31.78-7.95-.28-.84-.54-1.63-.28-5.82.18-2.81-1-5.4-1.85-7.11a9.11,9.11,0,0,1-.7-1.73,3.36,3.36,0,0,1,.54-2A6.11,6.11,0,0,0,387,294a23,23,0,0,0-2-5.5.49.49,0,0,1,0-.41s1.42-4.15-.45-6.72-2.8-2.88-2.81-2.89a.51.51,0,0,1-.33-.61.5.5,0,0,1,.59-.35c.21,0,1.31.44,3.36,3.27,1.94,2.66.94,6.47.65,7.42a24.59,24.59,0,0,1,2,5.57,7.06,7.06,0,0,1-.82,5,3,3,0,0,0-.46,1.41,8.88,8.88,0,0,0,.62,1.5,15.58,15.58,0,0,1,2,7.6c-.25,4,0,4.74.23,5.45.37,1.1.12,3.86-.75,8.45C387.45,329.77,378,329.77,374.88,329.77Z" style="fill:#263238"></path><g style="clip-path:url(#freepik--clip-path-24--inject-127)"><path d="M388.72,309.29c.26-4.1-2.3-7.69-2.56-9s2-3.08,1.28-6.41a23.7,23.7,0,0,0-2.05-5.63s1.54-4.36-.51-7.18S381.8,278,381.8,278l-6.07,1c1.27,3.59,1.64,7.26.69,8.74-2,3.09-3.31,3.09,2.43,6S383,298,380,299.28s-9.49,1.76-6.18,3.09,15.67,7.5,10.82,8.38-16.33-3.09-12.8.44,12.13,5.52,9.93,7.51-13.46-1.55-9.49.44,5.29,4.85,3.75,5.74-7.28.88-13.46,1.32c-2.82.2-6.15.59-8.93.95,6.53.73,17.32,2.12,21.29,2.12,5.39,0,12.3-.77,13.33-6.15s1-7.43.77-8.2S388.47,313.39,388.72,309.29Z" style="fill:#92E3A9"></path><path d="M388.72,309.29c.26-4.1-2.3-7.69-2.56-9s2-3.08,1.28-6.41a23.7,23.7,0,0,0-2.05-5.63s1.54-4.36-.51-7.18S381.8,278,381.8,278l-6.07,1c1.27,3.59,1.64,7.26.69,8.74-2,3.09-3.31,3.09,2.43,6S383,298,380,299.28s-9.49,1.76-6.18,3.09,15.67,7.5,10.82,8.38-16.33-3.09-12.8.44,12.13,5.52,9.93,7.51-13.46-1.55-9.49.44,5.29,4.85,3.75,5.74-7.28.88-13.46,1.32c-2.82.2-6.15.59-8.93.95,6.53.73,17.32,2.12,21.29,2.12,5.39,0,12.3-.77,13.33-6.15s1-7.43.77-8.2S388.47,313.39,388.72,309.29Z" style="fill:#fff;opacity:0.5"></path></g><path d="M368.22,316.21s5.38,5.12,12,5.38" style="fill:#fff"></path><path d="M380.27,322.09h0c-6.78-.26-12.15-5.31-12.37-5.52a.5.5,0,1,1,.69-.73c.05.05,5.33,5,11.72,5.25a.5.5,0,0,1,.48.52A.51.51,0,0,1,380.27,322.09Z" style="fill:#263238"></path></g><g id="freepik--character-2--inject-127"><path d="M258,296.57a11.73,11.73,0,0,0-2.52,7.55c.23,4.35-4.12,15.8-4.12,18.55a11.17,11.17,0,0,0,2.29,6.41c.92,1.14,5.5-1.38,5.5-1.38s1.37-9.15,1.6-11.21S260.49,299.09,258,296.57Z" style="fill:#fff"></path><path d="M254.47,329.86a1.5,1.5,0,0,1-1.24-.47,11.57,11.57,0,0,1-2.4-6.72,38.85,38.85,0,0,1,1.68-7.08c1.14-4,2.57-9,2.45-11.44a12.07,12.07,0,0,1,2.63-7.9.5.5,0,0,1,.36-.18.5.5,0,0,1,.38.15c2.75,2.75,3.1,18.37,2.89,20.32s-1.55,10.86-1.61,11.24a.5.5,0,0,1-.25.36C258.48,328.62,256.07,329.86,254.47,329.86ZM258,297.4a11.28,11.28,0,0,0-2,6.7c.14,2.6-1.25,7.47-2.48,11.76a40.78,40.78,0,0,0-1.64,6.81,10.6,10.6,0,0,0,2.18,6.09c.33.42,2.51-.24,4.65-1.38.22-1.47,1.36-9.11,1.56-10.95C260.45,314.33,260,300.8,258,297.4Z" style="fill:#263238"></path><path d="M255.45,304.12c.17,3.26-2.21,10.47-3.43,15.06,1.72-1.43,4.85-2.91,8.2,1,.23-1.6.42-3,.5-3.67.23-2.06-.23-17.4-2.75-19.92A11.73,11.73,0,0,0,255.45,304.12Z" style="fill:#fff"></path><path d="M260.22,320.66a.52.52,0,0,1-.38-.17c-3-3.45-5.72-2.41-7.5-.93a.51.51,0,0,1-.59,0,.5.5,0,0,1-.21-.55c.28-1.05.61-2.23,1-3.47,1.14-4,2.57-9,2.45-11.43h0a12.07,12.07,0,0,1,2.63-7.9.5.5,0,0,1,.36-.18.5.5,0,0,1,.38.15c2.75,2.75,3.1,18.37,2.89,20.32-.08.67-.27,2.09-.5,3.69a.49.49,0,0,1-.36.41A.32.32,0,0,1,260.22,320.66Zm-4.51-3.5a5.93,5.93,0,0,1,4.16,1.91c.16-1.16.29-2.12.35-2.64.23-2.1-.25-15.63-2.25-19a11.28,11.28,0,0,0-2,6.7h0c.14,2.6-1.25,7.46-2.48,11.76-.21.73-.41,1.44-.6,2.12A5.63,5.63,0,0,1,255.71,317.16Z" style="fill:#263238"></path><path d="M268.27,292s-6.86.46-9.61,3.21-.92,8.47-.23,14.88,1.37,20.14,2.52,22.2,5.72,3,10.3,1.6,18.31-4.8,18.31-4.8.23-12.59.92-21.06-1.38-15.8-5.5-17.4S271.25,289.25,268.27,292Z" style="fill:#fff"></path><path d="M266.84,335c-2.95,0-5.43-.9-6.33-2.52-.8-1.43-1.31-7.23-2-15.27-.21-2.69-.42-5.23-.62-7.12-.16-1.48-.38-2.92-.59-4.31-.71-4.66-1.32-8.69,1-11,2.64-2.63,8.65-3.24,9.77-3.33,3.34-2.85,13-2.94,17.1-1.36s6.54,8.84,5.81,17.91c-.68,8.35-.92,20.9-.92,21a.49.49,0,0,1-.38.48c-.13,0-13.77,3.45-18.29,4.8A16,16,0,0,1,266.84,335Zm11.24-44.94c-3.84,0-7.83.75-9.47,2.26a.48.48,0,0,1-.3.13c-.07,0-6.72.48-9.3,3.06-1.93,1.93-1.35,5.73-.68,10.12.21,1.4.44,2.85.6,4.35.2,1.91.4,4.45.62,7.15.48,6,1.08,13.51,1.83,14.87,1,1.73,5.2,2.72,9.73,1.36,4.11-1.23,15.73-4.16,18-4.72,0-2.17.3-13.14.91-20.7.69-8.5-1.44-15.44-5.18-16.9A20,20,0,0,0,278.08,290.1ZM268.27,292h0Z" style="fill:#263238"></path><path d="M266.67,291.08s-2.75,3-1.6,6.18,4.12,7.55,6.64,6.18,7.09-8.7,7.78-12.59-1.6-4.81-3.89-3.89S266.67,291.08,266.67,291.08Z" style="fill:#fff"></path><path d="M270.71,304.2a3.15,3.15,0,0,1-1.06-.2c-2.15-.83-4.13-4-5-6.57-1.23-3.45,1.58-6.56,1.7-6.69a.39.39,0,0,1,.15-.11c.27-.13,6.68-3.23,9-4.14a3.53,3.53,0,0,1,3.6.25c.68.55,1.41,1.73,1,4.19-.7,4-5.36,11.49-8,12.95A2.63,2.63,0,0,1,270.71,304.2ZM267,291.48c-.37.44-2.38,3-1.44,5.61.85,2.39,2.71,5.3,4.47,6a1.69,1.69,0,0,0,1.46-.06c2.44-1.33,6.87-8.54,7.53-12.24.27-1.57.06-2.69-.62-3.25a2.6,2.6,0,0,0-2.6-.09C273.68,288.26,267.79,291.09,267,291.48Z" style="fill:#263238"></path><path d="M262.78,265.21s-3.43,3.43-3.21,6,.46,4.35-.22,5.5-2.52,1.83-2.29,2.51a11.73,11.73,0,0,0,1.6,2.29s-.23,5.27,1.37,6.87,5,1.37,5,1.37,2.06,10.53,4.12,9.85,6.87-9.85,7.55-10.76.69-4.81.69-4.81a14.19,14.19,0,0,0,8-8.24c2.75-8-5.26-14.42-8.24-15.11a28.52,28.52,0,0,0-5.72-.69s-1.15-1.6-6-.68S258.66,262.46,262.78,265.21Z" style="fill:#fff"></path><path d="M269,300.08a1.26,1.26,0,0,1-.62-.18c-1.81-1-3.27-7.56-3.71-9.69-1,0-3.58-.13-5-1.53-1.58-1.58-1.56-5.95-1.53-7a10.8,10.8,0,0,1-1.57-2.31c-.23-.71.42-1.21,1.11-1.74a5.17,5.17,0,0,0,1.23-1.19c.55-.93.41-2.5.2-4.67l0-.52c-.2-2.2,2-4.89,2.94-5.92-1.49-1.11-2.13-2.22-1.91-3.32.3-1.47,2.19-2.61,5.32-3.2,4.12-.79,5.75.21,6.27.68a29.32,29.32,0,0,1,5.61.69c1.83.43,5.53,2.85,7.68,6.72a10.87,10.87,0,0,1,.92,9,14.56,14.56,0,0,1-8,8.42c0,1.11-.13,3.89-.79,4.77-.14.19-.56.9-1,1.73-2.53,4.36-5.13,8.66-6.75,9.2A1.23,1.23,0,0,1,269,300.08Zm-3.92-10.88a.5.5,0,0,1,.49.41c.64,3.27,2.11,8.72,3.31,9.43.1,0,.14,0,.16,0,1.4-.46,4.77-6.27,6.21-8.75.61-1.05.93-1.61,1.1-1.83.41-.54.59-3,.59-4.51a.5.5,0,0,1,.33-.47,13.79,13.79,0,0,0,7.71-7.93,9.84,9.84,0,0,0-.85-8.23c-1.92-3.45-5.32-5.83-7-6.23a27.81,27.81,0,0,0-5.61-.67.51.51,0,0,1-.41-.21s-1.12-1.31-5.45-.49c-2.63.5-4.32,1.41-4.53,2.42-.15.75.55,1.68,2,2.62a.55.55,0,0,1,.22.37.49.49,0,0,1-.15.4c-.91.91-3.23,3.69-3.06,5.56l.05.52c.22,2.36.38,4.07-.35,5.27a5.71,5.71,0,0,1-1.47,1.47,3.23,3.23,0,0,0-.77.7,12.77,12.77,0,0,0,1.51,2.06.52.52,0,0,1,.12.34c-.06,1.41,0,5.31,1.23,6.5,1.42,1.42,4.61,1.23,4.65,1.22Z" style="fill:#263238"></path><g style="clip-path:url(#freepik--clip-path-25--inject-127)"><path d="M285.44,275.74c2.13-6.21-2.2-11.45-5.64-13.82-4.88,1.32-11.39,3.67-11.39,6.79,0,5,5,9,3,14l-2,5,5.46,4.23c.92-1.56,1.64-2.84,1.87-3.15.69-.92.69-4.81.69-4.81A14.19,14.19,0,0,0,285.44,275.74Z" style="fill:#92E3A9"></path><path d="M285.44,275.74c2.13-6.21-2.2-11.45-5.64-13.82-4.88,1.32-11.39,3.67-11.39,6.79,0,5,5,9,3,14l-2,5,5.46,4.23c.92-1.56,1.64-2.84,1.87-3.15.69-.92.69-4.81.69-4.81A14.19,14.19,0,0,0,285.44,275.74Z" style="fill:#fff;opacity:0.5"></path></g><path d="M277.2,260.63a28.52,28.52,0,0,0-5.72-.69s-1.15-1.6-6-.68-6.87,3.2-2.75,5.95c0,0,7.78.46,8.7,2.29s-2.06,3.2-1.15,5.49,2.75,2.75,2.75,3.44,2.52-2.52,3.66-1.15a5.9,5.9,0,0,1,.23,6.18c-1.14,2.06-2.29,1.83-2.29,1.83a8.52,8.52,0,0,0,2.75.85V284a14.19,14.19,0,0,0,8-8.24C288.19,267.73,280.18,261.32,277.2,260.63Z" style="fill:#263238"></path><path d="M277.43,284.63h-.08a9.14,9.14,0,0,1-2.92-.9.51.51,0,0,1-.22-.61.51.51,0,0,1,.57-.32h0c.1,0,.89,0,1.74-1.58a5.48,5.48,0,0,0-.17-5.62c-.4-.48-1.34.2-2.19.86-.58.45-.9.69-1.27.51a.7.7,0,0,1-.32-.54,3.46,3.46,0,0,0-.52-.46,6.69,6.69,0,0,1-2.19-2.79,3.66,3.66,0,0,1,.66-3.45c.51-.85.8-1.4.5-2-.54-1.08-5.17-1.83-8.28-2a.73.73,0,0,1-.25-.08c-1.83-1.22-2.63-2.45-2.39-3.66.3-1.47,2.19-2.61,5.32-3.2,4.12-.79,5.75.21,6.27.68a29.32,29.32,0,0,1,5.61.69c1.83.43,5.53,2.85,7.68,6.72a10.87,10.87,0,0,1,.92,9,14.51,14.51,0,0,1-8,8.44.46.46,0,0,1-.13.18A.52.52,0,0,1,277.43,284.63Zm-1.35-1.31c.3.09.65.18,1.05.26l.13-.07a13.79,13.79,0,0,0,7.71-7.93,9.84,9.84,0,0,0-.85-8.23c-1.92-3.45-5.32-5.83-7-6.23a27.81,27.81,0,0,0-5.61-.67.51.51,0,0,1-.41-.21s-1.12-1.31-5.45-.49c-2.63.5-4.32,1.41-4.53,2.42-.15.73.51,1.63,1.86,2.55,1.61.1,8,.63,9,2.56.57,1.13,0,2.11-.54,3s-1,1.61-.58,2.56a5.61,5.61,0,0,0,1.89,2.38,4.09,4.09,0,0,1,.67.63l.19-.15c.89-.69,2.53-2,3.58-.71a6.39,6.39,0,0,1,.28,6.75A5,5,0,0,1,276.08,283.32Z" style="fill:#263238"></path><path d="M267.36,288.6a.51.51,0,0,1-.5-.43.49.49,0,0,1,.43-.56c2.95-.43,5.81-4.56,5.84-4.6a.5.5,0,0,1,.41-.22h1.14a.5.5,0,0,1,.5.5.5.5,0,0,1-.5.5h-.88c-.67.92-3.38,4.38-6.37,4.81Z" style="fill:#263238"></path><path d="M283.15,304.12l9.85,19a9.49,9.49,0,0,0,8.24,3.21c5.49-.46,4.54-5.54,2.74-8.93-5.72-10.76-9.38-22-13.73-25.18s-8,.23-9.16,1.37" style="fill:#fff"></path><path d="M300.28,326.87a9.85,9.85,0,0,1-7.69-3.45l-9.88-19.06a.51.51,0,0,1,.21-.68.52.52,0,0,1,.68.21l9.84,19a9,9,0,0,0,7.75,2.94,3.77,3.77,0,0,0,3.28-1.71c.94-1.72.14-4.48-.93-6.48-2-3.7-3.72-7.52-5.27-10.89-3-6.49-5.56-12.09-8.32-14.13s-5.61-1.57-8.5,1.33a.51.51,0,0,1-.71,0,.5.5,0,0,1,0-.71c4.11-4.11,7.6-3,9.8-1.42,3,2.18,5.6,7.9,8.64,14.51,1.62,3.53,3.29,7.17,5.24,10.84.58,1.08,2.35,4.82.93,7.43a4.74,4.74,0,0,1-4.07,2.23C300.94,326.86,300.6,326.87,300.28,326.87Z" style="fill:#263238"></path><g style="clip-path:url(#freepik--clip-path-26--inject-127)"><path d="M290.25,292.22a5.84,5.84,0,0,0-5.79-.94,11.32,11.32,0,0,1,6.28,6.76c2.33,6,9,20.67,9,20.67s-1.38,3.79-2.52,7.18a10.22,10.22,0,0,0,4,.44c5.49-.46,4.54-5.54,2.74-8.93C298.26,306.64,294.6,295.43,290.25,292.22Z" style="fill:#92E3A9"></path><path d="M290.25,292.22a5.84,5.84,0,0,0-5.79-.94,11.32,11.32,0,0,1,6.28,6.76c2.33,6,9,20.67,9,20.67s-1.38,3.79-2.52,7.18a10.22,10.22,0,0,0,4,.44c5.49-.46,4.54-5.54,2.74-8.93C298.26,306.64,294.6,295.43,290.25,292.22Z" style="fill:#fff;opacity:0.5"></path></g><path d="M275.6,327.23a.51.51,0,0,1-.45-.27c-.06-.12-6-11.79-12.34-22.41S239,273.24,238.82,273a.5.5,0,1,1,.76-.65c.18.21,17.73,21,24.09,31.66S276,326.39,276,326.5a.49.49,0,0,1-.21.67A.53.53,0,0,1,275.6,327.23Z" style="fill:#263238"></path><path d="M301.92,321.52a7.91,7.91,0,0,0-5.26-3.66c-3.44-.46-22-3.89-23.12-4.12s-3.44-3.89-4.35-5.27-4.81-1.14-5.95-1.14-1.15,2.29-1.15,2.29a15.09,15.09,0,0,0,1.38,3.66,4.69,4.69,0,0,0,1.83,1.37h1.14s1.37,3,3,3.44a11.2,11.2,0,0,0,3.66.23s18.31,8.47,24.26,8.47C301.69,326.79,303.53,326.33,301.92,321.52Z" style="fill:#fff"></path><path d="M297.34,327.29c-5.8,0-22.6-7.66-24.35-8.46a11.65,11.65,0,0,1-3.71-.26c-1.51-.43-2.73-2.59-3.15-3.42h-.83a.58.58,0,0,1-.19,0,5.28,5.28,0,0,1-2-1.54,14.69,14.69,0,0,1-1.46-3.84.5.5,0,0,1,0-.12c0-.29.05-2.79,1.65-2.79h.43c2.58,0,5.08.1,5.93,1.38l.34.5c.71,1.08,2.88,4.38,3.7,4.55,1.32.26,19.77,3.67,23.08,4.11a8.38,8.38,0,0,1,5.64,3.91l0,.09c.75,2.27.79,3.68.12,4.61C301.65,327.19,299.66,327.29,297.34,327.29Zm-24.26-9.47a.52.52,0,0,1,.21,0c.18.09,18.28,8.43,24,8.43,2.36,0,3.83-.15,4.37-.91s.36-1.8-.24-3.65a7.45,7.45,0,0,0-4.88-3.37c-3.44-.46-21.83-3.87-23.15-4.13-1-.21-2.37-2-4.34-5l-.33-.5c-.67-1-3.87-.94-5.08-.93h-.45c-.44,0-.64,1.11-.65,1.73a13.82,13.82,0,0,0,1.28,3.42,4.25,4.25,0,0,0,1.53,1.17h1a.52.52,0,0,1,.46.29c.35.77,1.52,2.85,2.65,3.17a11.06,11.06,0,0,0,3.48.21Z" style="fill:#263238"></path><path d="M284.3,328.62s-8.24,3.43-13.05,3.66-8.47-.91-14.19-3.2-12.59-4.35-17.63-.92,5.49,43.49,5.95,46-3.43,4.58-7.78,6.18-7.33,3-4.81,4.58,12.36.46,15.34.46,4.58-1.83,4.58-4.35-1.61-8-1.61-10.07.46-26.33.46-26.33,9.85,5.27,19,5.72,15.34.23,18.77-5.49S291.39,328.85,284.3,328.62Z" style="fill:#fff"></path><path d="M238.65,386.29c-2.63,0-5-.21-6.13-.94-.83-.52-1.21-1.11-1.14-1.74.14-1.31,2.23-2.32,6.05-3.73,5.27-1.94,7.78-3.83,7.46-5.62-.06-.33-.32-1.41-.68-2.91-6.61-27.59-8.22-41.45-5.06-43.6,5.19-3.54,12.06-1.55,18.09.86,5.81,2.32,9.38,3.39,14,3.17s12.79-3.59,12.87-3.62a.52.52,0,0,1,.21,0,6.76,6.76,0,0,1,5.94,3.79c2,3.71,1.81,9.39-.49,13.22-3.62,6-10.24,6.19-19.22,5.73-7.74-.38-16-4.2-18.49-5.41-.08,4.21-.45,23.7-.45,25.52a30.34,30.34,0,0,0,.73,4.47,33.76,33.76,0,0,1,.88,5.6c0,2.95-2,4.85-5.08,4.85-.7,0-1.83.07-3.13.14C243,386.15,240.76,386.29,238.65,386.29Zm7.2-59.46a10.66,10.66,0,0,0-6.14,1.74c-1.85,1.27-2.41,9.68,5.47,42.55.38,1.57.63,2.61.69,3,.58,3.16-4.35,5.36-8.1,6.74-1.58.59-5.3,1.95-5.4,2.9,0,.21.22.49.69.79,1.77,1.13,8.1.75,11.88.53,1.32-.08,2.46-.15,3.19-.15,2.55,0,4.08-1.44,4.08-3.85a34.35,34.35,0,0,0-.85-5.4,29.3,29.3,0,0,1-.76-4.67c0-2,.46-26.09.46-26.34a.52.52,0,0,1,.25-.42.53.53,0,0,1,.49,0c.1.05,9.85,5.22,18.79,5.67s15,.31,18.31-5.26a13.26,13.26,0,0,0,.47-12.22,5.87,5.87,0,0,0-5-3.27c-1,.42-8.51,3.44-13.12,3.66-4.79.24-8.46-.86-14.4-3.24C253.29,328.11,249.42,326.83,245.85,326.83Z" style="fill:#263238"></path><g style="clip-path:url(#freepik--clip-path-27--inject-127)"><path d="M289.33,344.87c3.44-5.72,2.06-16-5-16.25,0,0-8.24,3.43-13.05,3.66s-8.47-.91-14.19-3.2c-5-2-10.93-3.84-15.7-1.94h0s4.38,2.24,7,10.57,1.37,15.53.66,22,.34,15,3.34,19.33a1.74,1.74,0,0,0,.12.14c-.41-2.76-1.43-6.57-1.43-8.21,0-2.06.46-26.33.46-26.33s9.85,5.27,19,5.72S285.9,350.59,289.33,344.87Z" style="fill:#92E3A9"></path><path d="M289.33,344.87c3.44-5.72,2.06-16-5-16.25,0,0-8.24,3.43-13.05,3.66s-8.47-.91-14.19-3.2c-5-2-10.93-3.84-15.7-1.94h0s4.38,2.24,7,10.57,1.37,15.53.66,22,.34,15,3.34,19.33a1.74,1.74,0,0,0,.12.14c-.41-2.76-1.43-6.57-1.43-8.21,0-2.06.46-26.33.46-26.33s9.85,5.27,19,5.72S285.9,350.59,289.33,344.87Z" style="fill:#fff;opacity:0.5"></path></g><path d="M247.37,376.4a5.28,5.28,0,0,0-2.53-.25c-1.19,1.64-4.09,3-7.24,4.2-4.35,1.6-7.33,3-4.81,4.58s12.36.46,15.34.46,4.58-1.83,4.58-4.35a18.44,18.44,0,0,0-.38-3.07c-1.47.25-3,.38-3,.38A4.85,4.85,0,0,0,247.37,376.4Z" style="fill:#fff"></path><path d="M238.65,386.29c-2.63,0-5-.21-6.13-.94-.83-.52-1.21-1.11-1.14-1.74.14-1.31,2.23-2.32,6.05-3.73s6-2.71,7-4a.54.54,0,0,1,.37-.21,5.62,5.62,0,0,1,2.8.3h0a5.45,5.45,0,0,1,2,1.87c.52-.05,1.6-.16,2.64-.35a.5.5,0,0,1,.58.41,19.07,19.07,0,0,1,.39,3.16c0,2.95-2,4.85-5.08,4.85-.7,0-1.83.07-3.13.14C243,386.15,240.76,386.29,238.65,386.29Zm6.45-9.66c-1.15,1.43-3.55,2.8-7.33,4.19-1.58.59-5.3,1.95-5.4,2.9,0,.21.22.49.69.79,1.77,1.13,8.1.75,11.88.53,1.32-.08,2.46-.15,3.19-.15,2.55,0,4.08-1.44,4.08-3.85a15.07,15.07,0,0,0-.29-2.5c-1.3.2-2.5.3-2.55.31a.51.51,0,0,1-.49-.27,4.33,4.33,0,0,0-1.73-1.73h0A4.41,4.41,0,0,0,245.1,376.63Z" style="fill:#263238"></path><path d="M288,328.16s-.65.31-1.67.83a6.63,6.63,0,0,0-2-.37s-8.24,3.43-13.05,3.66-8.47-.91-14.19-3.2c-5-2-10.93-3.84-15.7-1.94l.59.33s10.07-.68,9.61,17.17c0,0,9.85,5.27,19,5.72,1.21.07,2.35.11,3.46.14l0,.05s9.39.76,13.45.76,7.35-.25,8.11-10.66S288,328.16,288,328.16Z" style="fill:#263238"></path><path d="M287.49,351.81c-4,0-13.4-.76-13.49-.76a.6.6,0,0,1-.19-.06c-1.05,0-2.14-.07-3.27-.13-9.17-.45-19.11-5.72-19.21-5.78a.5.5,0,0,1-.27-.45c.18-6.87-1.17-11.75-4-14.48A7.35,7.35,0,0,0,242,328a.45.45,0,0,1-.28-.06l-.59-.34a.52.52,0,0,1-.25-.47.51.51,0,0,1,.31-.43c5-2,10.91-.12,16.07,1.94,5.81,2.32,9.38,3.39,14,3.17s12.79-3.59,12.87-3.62a.52.52,0,0,1,.21,0,7,7,0,0,1,1.94.33l1.49-.74a.57.57,0,0,1,.34,0c.09,0,8.81,2.32,8,13C295.35,351,292.06,351.81,287.49,351.81Zm-13.22-1.75c1.34.11,9.54.75,13.22.75s6.87,0,7.62-10.19c.67-9.16-5.92-11.57-7.1-11.93l-1.49.75a.51.51,0,0,1-.4,0,6.25,6.25,0,0,0-1.73-.34c-1,.42-8.51,3.44-13.12,3.66-4.79.24-8.46-.86-14.4-3.24-4.37-1.75-9.31-3.34-13.59-2.46a8.64,8.64,0,0,1,4.44,2.33c3,2.89,4.48,7.91,4.35,14.93,1.64.84,10.42,5.12,18.52,5.53,1.2.05,2.34.1,3.44.13A.53.53,0,0,1,274.27,350.06Z" style="fill:#263238"></path><path d="M293.45,335.71s-.91-7.09-5.49-7.55-7.55,2.75-9.16,9.16-2.29,28.38-4.12,33.42-4.12,10.07-6.18,11.21-7.55,4.13-7.55,6,7.78,1.83,12.36,2.06,5.95-.46,6.41-3-.46-6.87.69-9.61,9.61-23.12,11.9-29.76A24.11,24.11,0,0,0,293.45,335.71Z" style="fill:#fff"></path><path d="M274.86,390.51c-.49,0-1,0-1.58,0s-1.36-.06-2.11-.09c-6.48-.26-10.72-.57-10.72-2.47s3.64-4.08,7.57-6.26l.24-.13c1.59-.89,3.71-4.78,5.95-10.95,1-2.64,1.62-10.22,2.25-17.55.57-6.59,1.1-12.81,1.86-15.82,1.7-6.8,5-10,9.69-9.54s5.87,7.45,5.94,8a24.51,24.51,0,0,1-1.17,12.15c-2.31,6.72-10.94,27.45-11.91,29.79-.65,1.56-.6,3.7-.54,5.77a19.37,19.37,0,0,1-.12,3.74C279.71,389.81,278.05,390.51,274.86,390.51Zm12.26-61.89c-3.79,0-6.35,2.89-7.83,8.82-.74,2.94-1.29,9.41-1.83,15.66-.64,7.4-1.3,15-2.31,17.81-2.39,6.59-4.55,10.45-6.4,11.48l-.24.13c-4.69,2.6-7.06,4.41-7.06,5.39s6.84,1.35,9.76,1.47c.75,0,1.47.05,2.12.09,4.57.22,5.52-.48,5.9-2.57a18.81,18.81,0,0,0,.1-3.54c-.06-2.07-.12-4.42.61-6.18,1-2.33,9.59-23,11.9-29.72A23.74,23.74,0,0,0,293,335.82v0c0-.07-.92-6.71-5-7.12A7.09,7.09,0,0,0,287.12,328.62Z" style="fill:#263238"></path><g style="clip-path:url(#freepik--clip-path-28--inject-127)"><path d="M288.74,340c-1.19,6.92-4.95,24.6-7,34.09,2.79-6.73,8.7-21.13,10.56-26.51a24.11,24.11,0,0,0,1.14-11.91s-.91-7.09-5.49-7.55a7.55,7.55,0,0,0-1.06,0l-.61.86S290.41,330.38,288.74,340Z" style="fill:#92E3A9"></path><path d="M288.74,340c-1.19,6.92-4.95,24.6-7,34.09,2.79-6.73,8.7-21.13,10.56-26.51a24.11,24.11,0,0,0,1.14-11.91s-.91-7.09-5.49-7.55a7.55,7.55,0,0,0-1.06,0l-.61.86S290.41,330.38,288.74,340Z" style="fill:#fff;opacity:0.5"></path></g><path d="M279.72,387a31.42,31.42,0,0,0,.08-5,17,17,0,0,1-2.83-.45,12.67,12.67,0,0,0-1.6-3.44c-1.37-2.29-4.58,2.06-4.58,2.06l-.48,0A6,6,0,0,1,268.5,382c-2.06,1.15-7.55,4.13-7.55,6s7.78,1.83,12.36,2.06S279.26,389.51,279.72,387Z" style="fill:#fff"></path><path d="M274.86,390.51c-.49,0-1,0-1.58,0s-1.36-.06-2.11-.09c-6.48-.26-10.72-.57-10.72-2.47s3.64-4.08,7.57-6.26l.24-.13a5.61,5.61,0,0,0,1.64-1.71.5.5,0,0,1,.44-.22l.22,0c.56-.73,2.29-2.77,3.84-2.71a1.69,1.69,0,0,1,1.4.91,16.3,16.3,0,0,1,1.58,3.27,16.75,16.75,0,0,0,2.46.38.49.49,0,0,1,.46.49l0,1.36a19.66,19.66,0,0,1-.12,3.77h0C279.71,389.81,278.05,390.51,274.86,390.51Zm-4.3-9.9a6.11,6.11,0,0,1-1.81,1.78l-.24.13c-4.69,2.6-7.06,4.41-7.06,5.39s6.84,1.35,9.76,1.47c.75,0,1.47.05,2.12.09,4.57.22,5.52-.48,5.9-2.57h0a19.06,19.06,0,0,0,.1-3.56c0-.31,0-.62,0-.93a17.67,17.67,0,0,1-2.47-.43.51.51,0,0,1-.36-.38,12.28,12.28,0,0,0-1.54-3.28.72.72,0,0,0-.59-.42h0c-.91,0-2.39,1.54-3.12,2.52a.46.46,0,0,1-.43.2Zm9.16,6.38h0Z" style="fill:#263238"></path><path d="M258,326.1s3.89,2.52,4.58,4.81a20.35,20.35,0,0,1,.69,5s-1.15,1.61-1.38.69-.68-2.29-.68-2.29.68,5.72.23,6.87a2.12,2.12,0,0,1-3.67.23c-1.37-1.61-4.35-7.33-4.58-9.85s-.22-5.95.46-6.18" style="fill:#fff"></path><path d="M259.59,342.88a3,3,0,0,1-2.23-1.12c-1.35-1.58-4.44-7.38-4.69-10.12-.22-2.33-.39-6.31.79-6.7a.5.5,0,0,1,.64.32.51.51,0,0,1-.32.63c-.23.3-.38,2.73-.12,5.66.22,2.43,3.2,8.09,4.46,9.56a1.87,1.87,0,0,0,1.71.75,1.42,1.42,0,0,0,1.11-.84c.3-.74,0-4.46-.26-6.62a.51.51,0,0,1,.39-.55.5.5,0,0,1,.58.33c0,.05.4,1.19.64,2.09a3.67,3.67,0,0,0,.44-.49,19.76,19.76,0,0,0-.66-4.73c-.52-1.73-3.33-3.86-4.37-4.53a.5.5,0,1,1,.54-.84c.17.11,4.06,2.65,4.79,5.08a20.87,20.87,0,0,1,.71,5.18.48.48,0,0,1-.1.29c-.42.6-1.05,1.29-1.65,1.17h0a12.79,12.79,0,0,1-.1,4,2.46,2.46,0,0,1-1.87,1.46Z" style="fill:#263238"></path><path d="M242.18,273.85s-2.52,1.37-2.52,2.29,3.2,5.26,4.12,5.49,3-.45,3.43-3-3.2-4.58-3.2-4.58A1.16,1.16,0,0,0,242.18,273.85Z" style="fill:#fff"></path><path d="M244.15,282.18a1.93,1.93,0,0,1-.49-.06c-1.1-.27-4.5-4.8-4.5-6s1.89-2.24,2.74-2.71a1.76,1.76,0,0,1,1.4-.41,1.8,1.8,0,0,1,1.06.68c.63.38,3.82,2.43,3.34,5.05a4.15,4.15,0,0,1-1.8,2.87A3.34,3.34,0,0,1,244.15,282.18ZM243,274a.93.93,0,0,0-.55.24l-.07.05c-1.16.63-2.26,1.53-2.26,1.85.05.79,3,4.77,3.74,5a2.08,2.08,0,0,0,1.46-.37,3.2,3.2,0,0,0,1.36-2.21c.39-2.14-2.92-4-3-4.05a.62.62,0,0,1-.18-.18.79.79,0,0,0-.46-.34Zm-.86-.15h0Z" style="fill:#263238"></path></g><g id="freepik--Fire--inject-127"><path d="M190.26,382.94s-6-3.62-8-3.07-3.07,4-2,4.52,11,3.62,11,3.62-8,2.89-7.24,4.16,2.71,1.81,5.25.72,5.42-3.44,6-3.44,2.53-2.53-.55-5.24S190.26,382.94,190.26,382.94Z" style="fill:#263238"></path><path d="M186.79,394a3.41,3.41,0,0,1-3.11-1.56.86.86,0,0,1-.05-.75c.43-1.19,4-2.74,6.18-3.62-2.79-.87-8.85-2.78-9.72-3.21a1.62,1.62,0,0,1-.69-1.73,4.47,4.47,0,0,1,2.77-3.73c2-.53,6.76,2.19,8.07,3,.66-.37,2.29-.8,4.87,1.48,2.3,2,1.91,3.95,1.63,4.69s-.84,1.43-1.41,1.43a15.89,15.89,0,0,0-1.58,1,28.92,28.92,0,0,1-4.2,2.42A7.09,7.09,0,0,1,186.79,394Zm-4-13.67a1.32,1.32,0,0,0-.36,0,3.51,3.51,0,0,0-2,2.86c0,.41,0,.68.15.73.86.43,8.2,2.74,11,3.59a.5.5,0,0,1,.36.46.52.52,0,0,1-.33.49c-3.61,1.31-6.8,2.93-7,3.53.53.87,2.21,1.44,4.6.42a28,28,0,0,0,4-2.34c1.29-.84,1.76-1.14,2.13-1.14a2.44,2.44,0,0,0,.6-1.27c.11-.72-.05-1.84-1.48-3.1-2.63-2.32-3.8-1.32-3.84-1.28a.53.53,0,0,1-.61.07C187.94,382.12,184.35,380.31,182.79,380.31Z" style="fill:#263238"></path><path d="M231.22,391.13s6.48,2.59,8.35,1.73,2.38-4.43,1.22-4.79-11.47-1.75-11.47-1.75,7.37-4.17,6.45-5.3-3-1.33-5.29.15-4.79,4.28-5.33,4.37-2.08,2.92,1.4,5.09S231.22,391.13,231.22,391.13Z" style="fill:#263238"></path><path d="M238.53,393.53c-2.31,0-6-1.36-7.2-1.81-.59.47-2.12,1.16-5.05-.67-2.6-1.62-2.52-3.58-2.37-4.35s.6-1.56,1.16-1.65a15.32,15.32,0,0,0,1.39-1.22,29.65,29.65,0,0,1,3.75-3.08c2.71-1.74,4.94-1.27,5.95,0a.89.89,0,0,1,.17.73c-.23,1.24-3.45,3.35-5.51,4.58,2.9.4,9.19,1.29,10.12,1.58a1.6,1.6,0,0,1,1,1.58,4.47,4.47,0,0,1-2.13,4.13A3,3,0,0,1,238.53,393.53Zm-7.31-2.9a.58.58,0,0,1,.18,0c2.43,1,6.74,2.3,8,1.74a3.53,3.53,0,0,0,1.54-3.16c0-.42-.15-.67-.26-.7-.92-.28-8.54-1.35-11.4-1.74a.52.52,0,0,1-.43-.4.5.5,0,0,1,.25-.53c3.34-1.88,6.22-4,6.28-4.63-.67-.77-2.42-1.06-4.6.34a28.58,28.58,0,0,0-3.61,3c-1.13,1.05-1.54,1.42-1.91,1.48a2.35,2.35,0,0,0-.38,1.35c0,.73.35,1.81,2,2.82,3,1.86,4,.65,4,.63A.52.52,0,0,1,231.22,390.63Z" style="fill:#263238"></path><path d="M192.25,386.39s-4.7-3.26-4.88-8.68,3.8-8.5,5.24-10.86a10.72,10.72,0,0,0,1.63-3.79,43.36,43.36,0,0,1,1.81,4.7c0,.54,2.17-2.53,6.15-5.79s4.16-8.68,3.62-11.21a23.48,23.48,0,0,0-1.27-4.16s5.07,2.89,6.15,3.79a9.91,9.91,0,0,1,2,2.9s-3.44-6-.72-12.3,10.85-7.78,10.85-7.78-4.52,6-3.44,10.49,12.49,14.65,13.93,20.08-.72,7.05-.72,7.05l4.52-3.43s1.45,10.49-.36,15-10.67,6.87-10.67,6.87-13.21-4.7-16.46-5.24-7.6-.54-11,1.08A12.55,12.55,0,0,1,192.25,386.39Z" style="fill:#fff"></path><path d="M217,367s-12.84,7.77-17.18,11.21-8.32,7.78-11.94,9.59-4.16,4.88-2.89,5.79,5.6,3.79,7.77,2.35a52.89,52.89,0,0,0,6-5.43s-.18,3.44,2,3.62,4,1.26,5.79.18a19.65,19.65,0,0,0,3.8-3.44s7.23,4.89,8.14,5.43,5.43,1.27,7.6,1.27,5.06-3.26,5.42-4.16.18-2.9-2.17-4.17-10.67-5.06-12.12-6-4.52-2.54-4.52-2.54l-1.08-.9s7.77-5.61,9.4-7.06,2.35-3.07,1.63-4.7S219.38,365.77,217,367Z" style="fill:#263238"></path><path d="M226.08,398.11c-2.22,0-6.82-.72-7.86-1.34-.8-.48-6.3-4.19-7.8-5.2a18.27,18.27,0,0,1-3.62,3.21c-1.42.85-2.84.53-4.22.22a12.59,12.59,0,0,0-1.87-.33c-1.7-.14-2.23-1.78-2.39-2.95a43.23,43.23,0,0,1-5.25,4.67c-2.35,1.57-6.62-1.13-8.35-2.36a2.22,2.22,0,0,1-.81-2c.1-1.36,1.15-3.28,3.78-4.59,2.26-1.13,4.71-3.32,7.31-5.64,1.46-1.3,3-2.65,4.54-3.89,4.31-3.42,16.71-10.93,17.23-11.25l0,0a5.34,5.34,0,0,1,4.23-.45,3.4,3.4,0,0,1,2.07,1.78c.54,1.21.67,3.12-1.76,5.28-1.4,1.24-7.13,5.41-8.92,6.71l.55.46c.41.21,3.14,1.67,4.51,2.52.77.48,3.65,1.86,6.43,3.19,2.36,1.12,4.59,2.19,5.66,2.76,2.58,1.4,2.84,3.68,2.4,4.79S228.48,398.11,226.08,398.11Zm-15.74-7.7a.49.49,0,0,1,.28.09c.07.05,7.23,4.88,8.12,5.41a26.36,26.36,0,0,0,7.34,1.2c1.88,0,4.66-3.1,5-3.85.21-.53.31-2.32-1.94-3.53-1-.57-3.38-1.68-5.62-2.75-2.94-1.4-5.71-2.73-6.53-3.24-1.42-.89-4.46-2.5-4.49-2.51l-.09-.06-1.08-.91a.47.47,0,0,1-.18-.4.5.5,0,0,1,.2-.39c.08-.05,7.78-5.61,9.37-7s2.09-2.8,1.5-4.13a2.46,2.46,0,0,0-1.47-1.24,4.38,4.38,0,0,0-3.43.39c-.44.27-12.91,7.84-17.12,11.17-1.54,1.22-3,2.56-4.49,3.86-2.65,2.36-5.15,4.59-7.54,5.79S185,391,184.9,392.06a1.25,1.25,0,0,0,.41,1.16c2.5,1.79,5.71,3.34,7.21,2.34a52.52,52.52,0,0,0,5.88-5.35.49.49,0,0,1,.56-.12.51.51,0,0,1,.3.49s-.13,2.95,1.53,3.09a15,15,0,0,1,2,.35c1.29.29,2.41.54,3.48-.1a19.25,19.25,0,0,0,3.68-3.33A.49.49,0,0,1,210.34,390.41Z" style="fill:#263238"></path></g><g id="freepik--character-1--inject-127"><path d="M81.7,391.63s-58.13,4.16-39.63,13.22,68,11.63,99.74,6.6,18.5-11.77-7.27-15.79S81.7,391.63,81.7,391.63Z" style="fill:#263238"></path><path d="M136.42,336.86s19.46-2.75,25.64-1.6,5.49,8.47,3,15.56-18.54,31.82-18.54,31.82l-3.43-3.2,3.89-24s-18.77,4.12-25.87,4.58-5.72-6.18-3.89-12.82S130.24,336.4,136.42,336.86Z" style="fill:#fff"></path><path d="M146.49,383.14a.53.53,0,0,1-.34-.13l-3.43-3.21a.52.52,0,0,1-.16-.44L146.34,356c-3.52.76-19,4-25.23,4.44-2.22.14-3.83-.39-4.8-1.58-2-2.44-.89-7.2.4-11.87,1.86-6.77,13.2-11.13,19.69-10.67,1.35-.19,19.66-2.72,25.75-1.59a5.82,5.82,0,0,1,4.21,2.8c2,3.47.64,9.21-.86,13.42-2.5,7.07-17.93,30.91-18.59,31.92a.49.49,0,0,1-.36.23Zm-2.9-3.89,2.81,2.62c2.28-3.55,15.89-24.81,18.16-31.21,1.43-4,2.74-9.45.93-12.59a4.77,4.77,0,0,0-3.52-2.32c-6-1.12-25.29,1.58-25.48,1.6h-.11c-6.15-.46-17,3.6-18.71,9.93-1.16,4.23-2.27,8.91-.58,11,.76.94,2,1.34,4,1.21,7-.45,25.61-4.53,25.79-4.57a.5.5,0,0,1,.45.13.49.49,0,0,1,.15.44Z" style="fill:#263238"></path><path d="M160,344.87A44,44,0,0,1,147,355.4a66.42,66.42,0,0,0,13.73-5.95" style="fill:#fff"></path><path d="M147,355.9a.5.5,0,0,1-.22-.95,43.81,43.81,0,0,0,12.88-10.39.49.49,0,0,1,.7-.08.5.5,0,0,1,.08.7,41.11,41.11,0,0,1-9.13,8.2,55.33,55.33,0,0,0,9.16-4.36.5.5,0,0,1,.69.17.51.51,0,0,1-.16.69,67.33,67.33,0,0,1-13.86,6Z" style="fill:#263238"></path><path d="M147.82,400.67s-13.92-2.23-21-2.23-21.06-.92-32.28-1.15-15.11-.46-20.6-3.89-6.64-17.85-3.67-26.32,12.14-8.93,12.14-8.93l67.3-1.38Z" style="fill:#92E3A9"></path><path d="M147.82,401.17h-.08c-.14,0-14-2.23-20.93-2.23-3.7,0-9.33-.25-15.28-.52-5.72-.25-11.62-.52-17-.63-11.4-.23-15.27-.47-20.86-4s-7-18.14-3.87-26.91,12.49-9.26,12.58-9.26l67.32-1.38a.51.51,0,0,1,.51.53l-1.88,43.89a.51.51,0,0,1-.18.37A.54.54,0,0,1,147.82,401.17Zm1.35-43.88-66.76,1.36c-.08,0-8.85.55-11.67,8.59C67.83,375.5,69,389.74,74.19,393c5.37,3.35,9.16,3.58,20.35,3.81,5.4.11,11.31.38,17,.63,6,.27,11.56.52,15.24.52,6.24,0,17.87,1.74,20.53,2.15Z" style="fill:#263238"></path><g style="clip-path:url(#freepik--clip-path-29--inject-127)"><g style="opacity:0.34"><path d="M147.82,400.67s-13.92-2.23-21-2.23-21.06-.92-32.28-1.15-15.11-.46-20.6-3.89-6.64-17.85-3.67-26.32,12.14-8.93,12.14-8.93l67.3-1.38Z"></path><path d="M147.82,401.17h-.08c-.14,0-14-2.23-20.93-2.23-3.7,0-9.33-.25-15.28-.52-5.72-.25-11.62-.52-17-.63-11.4-.23-15.27-.47-20.86-4s-7-18.14-3.87-26.91,12.49-9.26,12.58-9.26l67.32-1.38a.51.51,0,0,1,.51.53l-1.88,43.89a.51.51,0,0,1-.18.37A.54.54,0,0,1,147.82,401.17Zm1.35-43.88-66.76,1.36c-.08,0-8.85.55-11.67,8.59C67.83,375.5,69,389.74,74.19,393c5.37,3.35,9.16,3.58,20.35,3.81,5.4.11,11.31.38,17,.63,6,.27,11.56.52,15.24.52,6.24,0,17.87,1.74,20.53,2.15Z" style="fill:#263238"></path></g></g><path d="M107.73,366.51H104.9a.5.5,0,0,1-.5-.5.5.5,0,0,1,.5-.5h2.83a.5.5,0,0,1,.5.5A.5.5,0,0,1,107.73,366.51Z" style="fill:#263238"></path><path d="M117.81,366.51h-6a.5.5,0,0,1-.5-.5.5.5,0,0,1,.5-.5h6a18.2,18.2,0,0,0,2.51-.25,28.43,28.43,0,0,1,4.42-.38H131a30.5,30.5,0,0,0,7.42-1.24.49.49,0,0,1,.62.33.5.5,0,0,1-.33.63,31,31,0,0,1-7.71,1.28h-6.3a26.81,26.81,0,0,0-4.27.37A18.51,18.51,0,0,1,117.81,366.51Z" style="fill:#263238"></path><path d="M129.78,370.6h-5.35a15.24,15.24,0,0,1-4.52-.45L119,370a11.08,11.08,0,0,0-4.16-.13,12.62,12.62,0,0,1-1.73.14h-12.6a.5.5,0,0,1-.5-.5.5.5,0,0,1,.5-.5h12.6a11.52,11.52,0,0,0,1.6-.13,11.75,11.75,0,0,1,4.48.14l.93.19a14.66,14.66,0,0,0,4.33.43h5.35a.5.5,0,0,1,.5.5A.5.5,0,0,1,129.78,370.6Z" style="fill:#263238"></path><path d="M82.22,377.53H69a.5.5,0,0,1-.5-.5.5.5,0,0,1,.5-.5H86l3.42-.31a.5.5,0,0,1,.54.45.5.5,0,0,1-.45.55l-3.47.31Z" style="fill:#263238"></path><path d="M98.6,381a.5.5,0,0,1,0-1l3.78-.31a.49.49,0,0,1,.54.45.5.5,0,0,1-.46.54l-3.78.32Z" style="fill:#263238"></path><path d="M94.19,381H87.57l-7.89-.32a.5.5,0,0,1-.48-.52.5.5,0,0,1,.52-.48l7.87.32h6.6a.5.5,0,0,1,.5.5A.51.51,0,0,1,94.19,381Z" style="fill:#263238"></path><path d="M136.4,392.34H126l-3.86-.64h-2.75l-7.27-.32a.5.5,0,0,1-.48-.52.53.53,0,0,1,.53-.48l7.24.32h2.81l3.87.64H136.4a.5.5,0,1,1,0,1Z" style="fill:#263238"></path><path d="M104.27,389.82h0a9.48,9.48,0,0,1-3.31-.34.51.51,0,0,1-.32-.63.5.5,0,0,1,.64-.32,8.58,8.58,0,0,0,3,.29.5.5,0,0,1,.5.5A.5.5,0,0,1,104.27,389.82Z" style="fill:#263238"></path><path d="M127.58,390.13h0c-.08,0-7.57-.31-8.8-.31h-10.4a.51.51,0,0,1-.5-.5.5.5,0,0,1,.5-.5h10.4c1.26,0,8.53.3,8.84.31a.51.51,0,0,1,.48.52A.5.5,0,0,1,127.58,390.13Z" style="fill:#263238"></path><ellipse cx="149.35" cy="378.86" rx="21.86" ry="14.99" transform="translate(-239.05 501.28) rotate(-85.98)" style="fill:#fff"></ellipse><path d="M148.56,401.2l-.78,0c-4.16-.29-7.9-2.91-10.52-7.38a29.91,29.91,0,0,1,2.21-31.4c3.22-4.05,7.29-6.11,11.45-5.83s7.9,2.91,10.52,7.37a28,28,0,0,1,3.37,16h0a28.1,28.1,0,0,1-5.57,15.39C156.22,399.14,152.45,401.2,148.56,401.2Zm1.59-43.67c-3.58,0-7.07,1.93-9.9,5.48a29,29,0,0,0-2.13,30.28c2.45,4.17,5.91,6.61,9.73,6.88s7.59-1.67,10.6-5.45a28.9,28.9,0,0,0,2.13-30.28c-2.45-4.17-5.9-6.61-9.73-6.88C150.62,357.54,150.38,357.53,150.15,357.53Zm14.16,22.39h0Z" style="fill:#263238"></path><g style="clip-path:url(#freepik--clip-path-30--inject-127)"><ellipse cx="149.35" cy="378.86" rx="21.86" ry="14.99" transform="translate(-239.05 501.28) rotate(-85.98)" style="opacity:0.25"></ellipse></g><path d="M151.11,396.15h-.56a11.87,11.87,0,0,1-9.21-5.62c-3.92-5.81-3.27-15.14,1.44-20.78a8.51,8.51,0,0,1,6.94-3.39,7.76,7.76,0,0,1,6,3.67c2.55,3.78,2.13,9.85-.94,13.51a5.57,5.57,0,0,1-4.58,2.24,5.12,5.12,0,0,1-4-2.43,7.84,7.84,0,0,1,.61-8.86,3.8,3.8,0,0,1,3.08-1.5,3.49,3.49,0,0,1,2.7,1.64,5.14,5.14,0,0,1-.4,5.88,2.64,2.64,0,0,1-2.12,1,2.4,2.4,0,0,1-1.87-1.13,3.46,3.46,0,0,1,.27-4,.5.5,0,0,1,.7-.07.52.52,0,0,1,.07.71,2.49,2.49,0,0,0-.21,2.78,1.42,1.42,0,0,0,1.09.69,1.65,1.65,0,0,0,1.3-.67,4.15,4.15,0,0,0,.34-4.69,2.5,2.5,0,0,0-1.92-1.19,2.81,2.81,0,0,0-2.27,1.14,6.78,6.78,0,0,0-.54,7.66,4.14,4.14,0,0,0,3.22,2,4.64,4.64,0,0,0,3.77-1.88c2.79-3.35,3.19-8.87.87-12.31a6.78,6.78,0,0,0-5.26-3.23,7.53,7.53,0,0,0-6.11,3c-4.45,5.33-5.07,14.11-1.38,19.58a10.89,10.89,0,0,0,8.43,5.18c3.54.18,7-1.54,9.78-4.85a.52.52,0,0,1,.71-.07.51.51,0,0,1,.06.71C158.32,394.31,154.78,396.15,151.11,396.15Z" style="fill:#263238"></path><path d="M105.06,285.58s-1.37-.23-6.87,9.62S89,323.58,91.1,335.94s11.9,23.58,20.83,24.27,17.35-3,21.06-6.41c5.26-4.81,8.69-11.45,5.72-16.25s-12.13-13.28-13.51-17.86,2.06-17.85-.91-24.26-9.39-10.08-13.05-10.53A12.44,12.44,0,0,0,105.06,285.58Z" style="fill:#263238"></path><path d="M114.06,360.79c-.72,0-1.45,0-2.17-.08C102.62,360,92.67,348.46,90.6,336c-2.17-13,2-31.75,7.15-41.08,3.44-6.15,6-9.61,7.17-9.85a13,13,0,0,1,6.38-.7c3.71.46,10.33,4.12,13.44,10.81,1.8,3.88,1.34,10,.93,15.48-.27,3.63-.53,7.05,0,8.86.79,2.62,4.29,6.64,7.68,10.53a64.47,64.47,0,0,1,5.77,7.2c3.38,5.46-1,12.51-5.81,16.89C129.56,357.61,122,360.79,114.06,360.79Zm-9-74.71c-.18.08-1.78.95-6.47,9.36-5.13,9.18-9.18,27.61-7,40.42,2,12,11.52,23.17,20.37,23.85,8.36.64,16.74-2.67,20.69-6.28,4.51-4.12,8.69-10.68,5.63-15.62a64.73,64.73,0,0,0-5.68-7.08c-3.45-4-7-8.07-7.88-10.9-.59-2-.34-5.33,0-9.22.4-5.31.85-11.33-.84-15-2.91-6.28-9.27-9.83-12.65-10.25a12.14,12.14,0,0,0-5.92.65A.42.42,0,0,1,105.1,286.08Z" style="fill:#263238"></path><path d="M134.59,260.86s-1.37,3.89-1.6,5,.91,2.74.91,5.49-2.06,5-2.52,5.95-1.14,3.44-3.89,3.66a24.23,24.23,0,0,1-6.41-.68l-1.83,6.41-9.61-6.41,1.83-8.93a26,26,0,0,1,6-10.53c4.35-4.35,9.84-4.35,12.36-4.35S134.59,260.86,134.59,260.86Z" style="fill:#fff"></path><path d="M119.25,287.23a.49.49,0,0,1-.28-.09l-9.61-6.41a.49.49,0,0,1-.21-.51l1.83-8.93a26.15,26.15,0,0,1,6.09-10.78c4.49-4.5,10.25-4.5,12.71-4.5,2.79,0,5.15,4.43,5.25,4.62a.47.47,0,0,1,0,.4s-1.36,3.87-1.58,5a4.08,4.08,0,0,0,.29,1.68,12.48,12.48,0,0,1,.63,3.72,10.13,10.13,0,0,1-2.09,5.42,7.74,7.74,0,0,0-.48.76c-.06.11-.12.25-.19.41-.49,1.15-1.42,3.3-4.11,3.52a22.56,22.56,0,0,1-6.1-.59l-1.7,6a.51.51,0,0,1-.31.33A.47.47,0,0,1,119.25,287.23Zm-9.06-7.14,8.77,5.84,1.64-5.75a.51.51,0,0,1,.6-.35,24.08,24.08,0,0,0,6.25.68c2.09-.18,2.8-1.83,3.28-2.93a4.09,4.09,0,0,1,.21-.46,9.37,9.37,0,0,1,.54-.87,9.14,9.14,0,0,0,1.92-4.86,11.74,11.74,0,0,0-.59-3.44,4.56,4.56,0,0,1-.31-2.15c.2-1,1.25-4.06,1.54-4.9-.69-1.24-2.54-3.89-4.26-3.89-2.53,0-7.8,0-12,4.2A25.9,25.9,0,0,0,112,271.52Z" style="fill:#263238"></path><g style="clip-path:url(#freepik--clip-path-31--inject-127)"><path d="M127.49,281a3.54,3.54,0,0,0,2-.73l-.21-.06c-3.78-1-5.55-3.53-4.54-9.58a18.93,18.93,0,0,0-1-8.56l-.66-4.64a14.06,14.06,0,0,0-5.6,3.43,26,26,0,0,0-6,10.53l-1.83,8.93,4.09,2.72,7-1.68.3-1A24.23,24.23,0,0,0,127.49,281Z" style="fill:#92E3A9"></path><path d="M127.49,281a3.54,3.54,0,0,0,2-.73l-.21-.06c-3.78-1-5.55-3.53-4.54-9.58a18.93,18.93,0,0,0-1-8.56l-.66-4.64a14.06,14.06,0,0,0-5.6,3.43,26,26,0,0,0-6,10.53l-1.83,8.93,4.09,2.72,7-1.68.3-1A24.23,24.23,0,0,0,127.49,281Z" style="fill:#fff;opacity:0.5"></path></g><path d="M120.62,270.7s-4.34,6.18-7.32,6.18-7.1-10.07-8.93-16.94,3.21-11.21,6.18-12.36a15,15,0,0,1,4.81-1.14,5,5,0,0,1,5.26-2.75l3.9.46s1.14-1.14,4.8-.69a3.27,3.27,0,0,1,3.21,3.67s2.06-1.38,3.43,1.83.92,4.58.92,4.58,2.29,2.28,1.83,4.34-4.12,3-4.12,3,.91,1.37-2.29,1.37a5.33,5.33,0,0,1-4.58-3s.69,3.2,0,4.58-3,2.29-3,2.29a3.08,3.08,0,0,1-3.44,1.37C118.79,267,120.62,270.7,120.62,270.7Z" style="fill:#263238"></path><path d="M113.3,277.38c-3.91,0-8.21-12.81-9.41-17.31a10.87,10.87,0,0,1,6.48-12.95,16.94,16.94,0,0,1,4.68-1.17,5.53,5.53,0,0,1,5.63-2.75l3.69.43c.5-.35,1.93-1,5-.66a4.1,4.1,0,0,1,2.91,1.49,3.7,3.7,0,0,1,.73,1.94,2.28,2.28,0,0,1,1.21,0,3.72,3.72,0,0,1,2.18,2.33,9.17,9.17,0,0,1,1,4.62c.57.64,2.21,2.66,1.78,4.61s-2.91,2.86-4,3.21a1.15,1.15,0,0,1-.13.6c-.34.63-1.25.93-2.78.93a5.3,5.3,0,0,1-3.81-1.59,6.12,6.12,0,0,1-.32,2.92,6.71,6.71,0,0,1-3.07,2.46,3.66,3.66,0,0,1-3.88,1.47c-.16,0-.53-.08-.65.08-.28.36.12,1.63.5,2.41a.49.49,0,0,1,0,.51C120.57,271.65,116.44,277.38,113.3,277.38Zm6.58-33.23a4.43,4.43,0,0,0-4.06,2.49.51.51,0,0,1-.46.3,14.71,14.71,0,0,0-4.63,1.11,9.88,9.88,0,0,0-5.88,11.77c2.09,7.82,6.15,16.56,8.45,16.56,2.13,0,5.44-3.93,6.75-5.73-.32-.71-.92-2.32-.28-3.18a1.52,1.52,0,0,1,1.63-.46,2.59,2.59,0,0,0,2.9-1.11.51.51,0,0,1,.26-.24,5.86,5.86,0,0,0,2.71-2.05c.5-1,.14-3.4,0-4.25a.51.51,0,0,1,.33-.58.5.5,0,0,1,.61.27,4.81,4.81,0,0,0,4.13,2.68c1.33,0,1.82-.25,1.9-.4a.28.28,0,0,0,0-.19.5.5,0,0,1,.3-.76c.93-.24,3.43-1.17,3.75-2.6.39-1.77-1.68-3.87-1.7-3.89a.51.51,0,0,1-.12-.51s.36-1.3-.9-4.23a2.82,2.82,0,0,0-1.54-1.76,1.49,1.49,0,0,0-1.15.15.52.52,0,0,1-.55,0,.51.51,0,0,1-.23-.49,3,3,0,0,0-.53-2,3.21,3.21,0,0,0-2.24-1.1c-3.3-.41-4.39.54-4.4.55a.55.55,0,0,1-.4.14l-3.89-.46A5.53,5.53,0,0,0,119.88,244.15Z" style="fill:#263238"></path><path d="M122.69,269.33s.22-4.81-2.52-4.12-2.75,4.81-1.83,6.64a4.31,4.31,0,0,0,3.2,2.06" style="fill:#fff"></path><path d="M121.54,274.41h-.05a4.79,4.79,0,0,1-3.6-2.34,7,7,0,0,1-.1-5.4,3.37,3.37,0,0,1,2.26-1.95,2,2,0,0,1,1.88.37c1.36,1.11,1.27,3.94,1.25,4.26a.5.5,0,1,1-1,0c0-.73-.06-2.77-.89-3.45a1.06,1.06,0,0,0-1-.16,2.31,2.31,0,0,0-1.59,1.39,6,6,0,0,0,.08,4.54,3.85,3.85,0,0,0,2.81,1.78.5.5,0,0,1,.45.55A.51.51,0,0,1,121.54,274.41Z" style="fill:#263238"></path><path d="M108.26,280.32s.92-3.44,5.73,0,7.78,11.21,7.78,11.21-8.47-4.8-11.68-4.8-7.78,4.8-8.69,2.52S108.26,280.32,108.26,280.32Z" style="fill:#fff"></path><path d="M121.77,292a.55.55,0,0,1-.25-.07c-.08-.05-8.39-4.74-11.43-4.74-1.29,0-2.94.92-4.4,1.74s-3,1.66-3.92,1.31a1.41,1.41,0,0,1-.84-.85c-1-2.44,5.35-8.07,6.9-9.4a2.69,2.69,0,0,1,1.57-1.58c1.25-.45,2.89,0,4.88,1.46,4.87,3.48,7.83,11.12,8,11.45a.5.5,0,0,1-.14.55A.53.53,0,0,1,121.77,292Zm-11.68-5.81c2.57,0,8.13,2.82,10.65,4.17-1.07-2.34-3.59-7.21-7-9.67-1.68-1.2-3-1.66-4-1.34a1.69,1.69,0,0,0-1,1.06.56.56,0,0,1-.16.25c-3.12,2.66-7.27,7-6.73,8.36.08.2.17.25.24.27.55.21,1.91-.56,3.11-1.23C106.77,287.22,108.54,286.23,110.09,286.23Zm-1.83-5.91h0Z" style="fill:#263238"></path><path d="M166.18,322a.49.49,0,0,1-.44-.26.51.51,0,0,1,.2-.68c.14-.07,14.08-7.61,23.82-12.59s22.54-11.16,22.67-11.23a.5.5,0,1,1,.43.91c-.12.06-12.92,6.23-22.65,11.21S166.56,321.89,166.42,322A.53.53,0,0,1,166.18,322Z" style="fill:#263238"></path><path d="M156.34,322s5.26-3,7.55-3,6.18,2.52,6.18,2.52.92,1.15.23,1.6l-1.37.92s0,1.83-1.38,2.29-3.43.91-3.43.91-4.35,2.29-7.33,1.38S156.34,322,156.34,322Z" style="fill:#fff"></path><path d="M158.37,329.33a6.11,6.11,0,0,1-1.72-.23,2.36,2.36,0,0,1-1.5-1.31c-1-2.11.66-5.85.73-6a.54.54,0,0,1,.21-.24c.22-.12,5.41-3,7.8-3s6.29,2.5,6.45,2.6a.43.43,0,0,1,.12.11,2.41,2.41,0,0,1,.58,1.61,1.06,1.06,0,0,1-.46.72l-1.17.78a2.78,2.78,0,0,1-1.7,2.48c-1.26.42-3.05.84-3.42.92A14.81,14.81,0,0,1,158.37,329.33Zm-1.64-7c-.45,1.08-1.29,3.7-.67,5a1.38,1.38,0,0,0,.88.77c2.74.84,6.9-1.31,6.95-1.34a.42.42,0,0,1,.12,0s2.05-.46,3.38-.91c1-.34,1-1.8,1-1.81a.51.51,0,0,1,.22-.42l1.37-.91a1.23,1.23,0,0,0-.29-.81c-.54-.34-3.89-2.4-5.84-2.4C162.18,319.5,158.28,321.47,156.73,322.33Z" style="fill:#263238"></path><path d="M151.3,322.44s3.89-.46,5-.46,1.37,4.58,1.37,6.18-3.44,1.83-3.44,1.83Z" style="fill:#fff"></path><path d="M154.27,330.49a.5.5,0,0,1-.46-.31l-3-7.56a.5.5,0,0,1,.41-.68c.16,0,3.93-.46,5.09-.46,1.7,0,1.88,4.67,1.88,6.68s-3.5,2.3-3.9,2.33ZM152,322.86l2.6,6.6c1-.13,2.61-.54,2.61-1.3,0-2.73-.43-5.44-.9-5.69C155.5,322.48,153.15,322.73,152,322.86Z" style="fill:#263238"></path><path d="M109.64,308s3.2,13,5,19,5,8.92,9.39,9.38,17.4-3,20.14-3,9.39-1.38,10.07-3.44-.22-7.09-3-7.55-14,0-14,0l-2.75-.23s-5.5-9.16-6.18-13-.69-14-6.64-16.48a7.89,7.89,0,0,0-9.39,1.83" style="fill:#263238"></path><path d="M125,336.94a9.13,9.13,0,0,1-.95,0c-4.68-.49-8-3.77-9.81-9.74s-5-18.89-5-19a.51.51,0,0,1,.37-.61.5.5,0,0,1,.6.37c0,.13,3.22,13.1,5,19,1.73,5.63,4.66,8.58,9,9,2.57.28,8.46-.89,13.18-1.83a54,54,0,0,1,6.91-1.14c2.82,0,9.05-1.44,9.6-3.1a8,8,0,0,0-.83-5.5,2.61,2.61,0,0,0-1.75-1.4c-2.67-.44-13.75,0-13.86,0l-2.81-.23a.54.54,0,0,1-.39-.24c-.23-.38-5.55-9.28-6.24-13.22-.12-.68-.22-1.52-.33-2.49-.54-4.63-1.34-11.64-6-13.62a7.42,7.42,0,0,0-8.79,1.68.5.5,0,0,1-.71.08.5.5,0,0,1-.08-.7,8.45,8.45,0,0,1,10-2c5.21,2.2,6.06,9.56,6.62,14.43.11,1,.21,1.78.32,2.42.61,3.43,5.15,11.25,6,12.66l2.49.21c.4,0,11.24-.46,14,0a3.64,3.64,0,0,1,2.45,1.87,8.85,8.85,0,0,1,.92,6.34c-.82,2.45-7.85,3.78-10.55,3.78a56.73,56.73,0,0,0-6.71,1.12C133.19,335.9,128,336.94,125,336.94Z" style="fill:#263238"></path><path d="M136.42,337.36h0c-.51,0-12.5-.48-17.5-2.35s-8-20.3-8.32-22.39a.49.49,0,0,1,.42-.57.5.5,0,0,1,.57.42c.82,5.52,3.81,20.17,7.68,21.61,4.85,1.8,17.07,2.28,17.19,2.28a.5.5,0,0,1,0,1Z" style="fill:#fff"></path><path d="M115.57,352a.5.5,0,0,1-.49-.39.52.52,0,0,1,.39-.6c11.5-2.39,12.57-13.74,12.58-13.85a.5.5,0,0,1,.54-.46.5.5,0,0,1,.46.54c0,.12-1.15,12.21-13.38,14.75Z" style="fill:#fff"></path><path d="M100.91,347.06l-.85,0a.49.49,0,0,1-.49-.51.54.54,0,0,1,.52-.49,26.29,26.29,0,0,0,22.3-10.81.49.49,0,0,1,.69-.16.5.5,0,0,1,.15.69A27.33,27.33,0,0,1,100.91,347.06Z" style="fill:#fff"></path><path d="M210.82,295.88s-5.27,1.61-6,2.06.23,3.44,1.38,4.35,7.32-2.06,8.24-3.2S213.56,294.05,210.82,295.88Z" style="fill:#fff"></path><path d="M206.92,303a1.53,1.53,0,0,1-1-.27,6.23,6.23,0,0,1-1.8-4.15,1.16,1.16,0,0,1,.46-1,51.33,51.33,0,0,1,6-2.1,2.66,2.66,0,0,1,3.62.41c.89,1,1.37,2.66.65,3.56S209.28,303,206.92,303Zm5.32-7.05a2.07,2.07,0,0,0-1.15.4.31.31,0,0,1-.13.06,57.81,57.81,0,0,0-5.82,2,5.15,5.15,0,0,0,1.41,3.54c.69.55,6.54-1.87,7.54-3.12.3-.38.08-1.52-.6-2.27A1.73,1.73,0,0,0,212.24,295.9Zm-1.42,0h0Z" style="fill:#263238"></path></g></svg>
